<?xml version="1.0" encoding="utf-8" ?>
<svg xmlns="http://www.w3.org/2000/svg" xmlns:xlink="http://www.w3.org/1999/xlink" width="1024" height="1024">
	<path fill="#013148" d="M365.211 1024L-0 1024L0 -0L1024 0L1024 1024L656.254 1024L365.211 1024ZM365.211 1024C367.503 1011.11 372.714 997.471 379.474 986.263L374.858 971.81L369.366 944.181C368.047 936.827 366.52 929.957 366.514 922.429C366.505 910.603 368.688 899.037 370.389 887.385L382.048 805.815L352.55 790.414C337.178 783.297 321.332 778.166 308.865 766.079C305.308 762.631 302.366 758.532 298.985 754.905C293.271 751.278 288.185 746.359 283.247 741.754C257.414 717.659 235.282 688.139 219.321 656.655C216.393 650.881 213.349 645.184 211.082 639.107C204.226 627.773 194.947 617.391 187.308 606.531C174.241 587.955 162.834 567.484 153.25 546.904C146.233 531.837 140.409 516.095 135.303 500.288L130.943 485.692C130.453 483.997 130.094 481.34 129.301 479.823C128.608 478.498 124.284 476.318 122.903 475.363C118.624 472.407 114.843 468.602 111.119 464.985C107.922 460.501 104.361 456.037 101.592 451.282C97.2159 443.769 94.5809 435.468 92.8637 427C90.5935 415.805 91.4076 403.242 95.0825 392.461C101.311 374.186 116.161 360.37 133.503 352.686C138.049 350.671 143.545 349.729 147.813 347.507L148.432 347.175L147.476 346.729C149.031 340.854 152.442 335.174 155.268 329.812C162.372 316.336 170.009 303.242 178.399 290.525C235.704 203.665 330.996 140.719 432.773 119.932C456.683 115.049 482.147 111.953 506.571 111.68C554.977 111.137 605.296 120.262 650.5 137.506C679.64 148.622 706.762 163.201 732.839 180.214C745.242 188.306 756.791 197.6 768.03 207.225C774.167 212.48 780.257 218.799 787.024 223.19L787.394 223.423C790.504 223.035 794.096 221.591 797.172 220.791L813.942 217.03C827.954 214.358 842.23 212.576 856.5 212.105C865.531 211.807 874.45 212.302 883.464 212.614C894.302 212.377 906.119 214.301 916.751 216.206C932.995 219.116 954.174 222.428 966.419 234.517C971.199 239.235 971.156 244.907 971.062 251.175L971.021 252.322C978.863 252.134 1002.89 249.652 1007.91 254.814C1011.65 258.656 1011.46 265.086 1011.21 270.069C1009.63 300.981 997.359 334.272 974.081 355.248L967.091 360.981C976.731 383.71 981.989 408.217 986.026 432.5C1000.8 521.382 990.431 612.301 956.692 695.815C935.7 747.778 905.38 796.271 867.448 837.577C822.765 886.234 765.713 926.589 704.925 952.393L646.258 974.38L644.339 981.622C644.189 982.206 643.618 983.653 643.693 984.189C643.861 985.379 645.259 987.415 645.834 988.625C647.408 991.937 648.888 995.308 650.123 998.762C653.031 1006.9 654.713 1015.52 656.254 1024L1024 1024L1024 0L0 -0L-0 1024L365.211 1024ZM148.432 347.175C165.11 342.734 184.525 345.612 199.444 354.173C206.118 358.002 213.462 363.448 217.518 370.125L231.397 345.673C250.4 315.644 273.199 289.691 300.288 266.725L327.371 245.585C324.774 241.963 322.563 237.762 320.73 233.706C318.303 228.333 316.499 222.782 315.364 217C314.651 213.372 313.808 209.219 315.15 205.653C317.044 205.522 320.932 208.889 322.75 210.003C339.521 220.279 359.459 224.469 378.775 219.951L379.352 219.812C383.468 220.447 388.997 218.482 393.015 217.445C406.805 213.886 420.175 208.792 434.038 205.497L465.25 198.27C470.855 197.108 477.186 196.879 482.562 195.045L483.481 194.245C476.403 185.44 462.63 182.707 453.133 177.39C458.436 173.7 463.823 172.793 470.024 171.383C493.6 166.026 518.156 165.663 541.955 169.906C567.331 174.43 592.767 184.494 613.899 199.311C617.542 201.865 620.918 204.564 624.237 207.526C626.493 209.541 628.904 212.175 631.54 213.647L651.969 223.371L656.292 208.288C659.928 213.247 663.195 218.583 665.684 224.217C679.226 231.895 692.181 240.64 704.574 250.067L722.061 263.932C721.989 261.558 722.257 258.839 722.654 256.5C723.041 254.225 723.874 252.382 725.855 251.089C732.773 246.572 755.064 250.569 763.082 252.177C762.835 247.533 761.993 241.799 764.316 237.561C768.511 229.908 779.621 225.947 787.394 223.423L787.024 223.19C780.257 218.799 774.167 212.48 768.03 207.225C756.791 197.6 745.242 188.306 732.839 180.214C706.762 163.201 679.64 148.622 650.5 137.506C605.296 120.262 554.977 111.137 506.571 111.68C482.147 111.953 456.683 115.049 432.773 119.932C330.996 140.719 235.704 203.665 178.399 290.525C170.009 303.242 162.372 316.336 155.268 329.812C152.442 335.174 149.031 340.854 147.476 346.729L148.432 347.175ZM815.387 637.39C813.129 642.875 810.126 648.099 807.487 653.419C791.455 685.728 771.185 714.466 746.045 740.358C738.761 747.86 730.984 755.686 722.16 761.396C711.387 771.445 699.459 779.885 685.75 785.453C679.444 788.014 672.302 790.019 666.37 793.301C658.984 799.009 650.789 802.989 642.586 807.328L654.525 885.882L680.054 874.663C707.779 861.355 734.496 845.456 758.764 826.541C788.857 803.087 816.363 775.411 838.75 744.459C880.502 686.732 906.23 619.453 915.045 548.847L869.786 548.527C860.763 566.369 852.147 584.032 841.091 600.774L824.845 624.125C821.696 628.479 818.106 632.757 815.387 637.39ZM751.833 292.623L781.675 324.548L774.115 283.153C765.904 280.591 758.063 279.448 749.513 278.518L751.833 292.623Z"/>
	<path fill="#209EBB" d="M947.293 337.73L951.132 344.34C948.817 345.957 946.191 347.037 943.63 348.2L947.293 337.73Z"/>
	<path fill="#B69B88" d="M343.059 521.961L351.818 533.137C350.243 533.525 348.078 534.376 346.499 534.385C345.978 532.99 345.034 531.773 344.483 530.373C343.439 527.717 343.068 524.794 343.059 521.961Z"/>
	<path fill="#209EBB" d="M352.55 790.414C357.029 790.377 361.585 793.466 365.961 794.642L383.032 798.498L382.048 805.815L352.55 790.414Z"/>
	<path fill="#209EBB" d="M642.586 807.328L641.251 799.24L658.025 795.067C660.702 794.413 663.611 793.29 666.37 793.301C658.984 799.009 650.789 802.989 642.586 807.328Z"/>
	<path fill="#209EBB" d="M631.54 213.647L651.969 223.371L647.334 236.677C644.707 232.305 642.328 227.748 639.324 223.62C636.842 220.209 633.868 217.162 631.54 213.647Z"/>
	<path fill="#209EBB" d="M318.734 334.75C319.757 334.478 319.283 334.44 320.161 334.75C315.065 341.49 309.857 347.941 305.438 355.176C301.914 360.947 299.129 367.052 296.455 373.25L295.882 373.757L295.522 373.25C296.33 366.241 297.437 359.156 299.676 352.451C300.722 349.319 302.205 344.283 304.569 341.994C305.529 341.065 307.447 340.398 308.645 339.792L318.734 334.75Z"/>
	<path fill="#209EBB" d="M751.833 292.623L781.675 324.548C782.862 331.895 786.434 339.767 788.917 346.817C786.941 346.823 782.128 343.208 780.46 341.987C765.709 331.19 754.675 310.494 751.833 292.623Z"/>
	<path fill="#FD8500" d="M811 489.023L923.027 489.991L922.992 495.941L810.971 496.027L811 489.023Z"/>
	<path fill="#FEB703" d="M467.797 663.25L469.59 663.371C470.436 665.206 470.561 667.457 471.094 669.417C473.434 678.029 479.478 684.581 487.058 688.994C498.934 695.908 512.738 697.704 526 694.026C537.229 690.912 548.097 683.267 552.143 672.007C553.096 669.355 553.17 665.626 554.471 663.261L561.88 665.069L559.45 672.101C557.429 676.505 555.342 680.524 552.104 684.171C542.716 694.746 529.208 701.013 515.123 701.699C501.383 702.369 487.133 698.053 476.848 688.661C470.348 682.725 463.63 673.687 463.25 664.519C464.538 663.48 466.211 663.468 467.797 663.25Z"/>
	<path fill="#8EC9E4" d="M802.486 374.442C806.316 376.346 808.634 381.362 811.223 384.633C813.528 387.546 816.132 390.446 818.798 393.03C825.043 399.081 832.6 403.68 840.245 407.712L843.361 421.62C843.844 424.199 844.624 426.93 844.504 429.571C844.272 434.67 841.581 440.559 839.067 444.918C836.819 448.817 833.613 452.725 830.393 455.861C824.858 438.614 820.896 421.085 814.095 404.206L808.245 389.847L803.597 379.461C803.225 378.586 802.115 376.629 802.05 375.757C802.016 375.297 802.341 374.881 802.486 374.442Z"/>
	<path fill="#8EC9E4" d="M947.293 337.73C949.997 329.334 952.56 321.088 954.118 312.388C955.936 302.231 956.625 291.498 957.585 281.216C960.121 280.52 963.683 280.978 966.327 280.977L985.142 280.989C980.305 303.974 969.779 329.203 951.132 344.34L947.293 337.73Z"/>
	<path fill="#FEB703" d="M988.043 258.783C991.519 258.505 998.55 257.673 1001.62 259.239C1002.53 259.7 1002.97 260.495 1003.23 261.471C1004.24 265.198 1003.51 270.21 1003.1 274.041C1001.15 292.151 996.644 309.183 987.749 325.185C979.028 340.873 965.95 353.961 949.643 361.653C944.627 364.018 939.11 365.503 933.792 367.04L937.394 359.787C938.862 357.112 940.242 356.951 943.03 356.114C949.473 353.534 955.48 350.502 960.748 345.874C981.337 327.792 991.177 300.416 993.034 273.758L972.313 273.795C967.914 273.793 962.413 274.334 958.25 272.808C958.008 271.439 957.942 271.317 958.53 270.074L960.5 269.059C964.843 266.849 966.894 263.744 969.298 259.656C974.897 258.432 982.227 259.004 988.043 258.783Z"/>
	<path fill="#FEB703" d="M731.94 257.21L742.072 256.895C748.66 257.09 754.85 258.005 761.318 259.234C762.046 259.372 764.603 259.593 765.133 259.974C765.872 260.505 766.85 262.162 767.48 262.909L772.763 268.67L772.458 275.274C766.399 273.234 760.432 272.151 754.109 271.232C751.713 270.883 748.416 270.164 746 270.514C744.584 270.719 743.76 271.591 743.023 272.75C740.418 276.846 742.611 288.888 743.557 293.685C748.255 317.503 760.702 337.505 780.991 351.066C785.026 353.231 789.054 354.513 793.438 355.771L798.367 366.36L789.89 363.716C767.739 355.458 750.281 337.014 740.66 315.706C733.731 300.359 730.844 285.124 729.741 268.405C729.563 265.707 728.844 261.011 729.917 258.558C730.381 257.497 730.916 257.607 731.94 257.21Z"/>
	<path fill="#FEB703" d="M811 489.023L810.956 473.992L897.146 473.966C900.868 473.965 920.801 473.127 923.046 474.245L923.027 489.991L811 489.023Z"/>
	<path fill="#F5C69B" d="M479.23 649.337C486.97 649.972 494.607 651.83 502.347 652.503C516.308 653.717 531.275 651.718 545.001 649.249L545.523 668.94C543.35 672.102 541.057 674.766 538.337 677.47C530.964 683.348 522.325 687.019 512.786 687.196C501.507 687.406 490.338 682.148 482.486 674.241C481.27 673.015 480.075 671.684 479.501 670.022C478.829 668.077 479.118 665.577 479.121 663.519L479.23 649.337Z"/>
	<path fill="#FEB703" d="M848.874 409.007L874.017 408.051C873.973 413.82 873.202 420.873 874.75 426.391L874.928 427.064C875.584 429.409 876.973 431.773 878.702 433.483C880.055 437.151 881.318 440.978 883.102 444.46C888.007 454.035 895.245 461.027 904.181 466.831C901.82 467.289 898.946 466.992 896.518 466.987L882.82 466.958L828.536 466.843C839.416 457.58 847.598 447.797 850.681 433.532C852.554 424.866 850.792 417.428 848.874 409.007Z"/>
	<path fill="#209EBB" d="M211.082 639.107C215.089 641.927 218.514 646.756 221.889 650.347L242.638 671.299C253.387 681.251 264.333 691.112 276 699.99L302.74 719.088C299.039 727.427 294.274 737.659 296.348 747L296.495 747.679C297.012 749.906 299.012 752.781 298.985 754.905C293.271 751.278 288.185 746.359 283.247 741.754C257.414 717.659 235.282 688.139 219.321 656.655C216.393 650.881 213.349 645.184 211.082 639.107Z"/>
	<path fill="#FD8500" d="M163.596 546.056C167.228 548.308 169.59 553.46 172.003 557.013L185.513 576.619C199.568 595.945 214.86 613.613 231.742 630.499C250.03 648.791 270.417 665.309 292.158 679.342L308.5 688.947C310.854 690.234 313.904 691.421 315.965 693.098L307.203 710.519L272.396 684.591C237.811 656.75 209.58 623.681 185.597 586.404C177.531 573.866 168.366 560.239 163.596 546.056Z"/>
	<path fill="#209EBB" d="M722.16 761.396C723.445 758.371 724.735 755.33 725.252 752.059C726.828 742.11 724.006 731.018 720.569 721.708C744.307 706.112 767.171 688.538 787 668.134L805.395 647.965C808.621 644.385 811.743 640.541 815.387 637.39C813.129 642.875 810.126 648.099 807.487 653.419C791.455 685.728 771.185 714.466 746.045 740.358C738.761 747.86 730.984 755.686 722.16 761.396Z"/>
	<path fill="#FD8500" d="M854.999 548.476L857.989 548.633L858.455 549.5C845.218 577.485 828.801 604.595 809.404 628.75L789.387 651.295C777.64 663.967 765.272 676.153 751.881 687.098C740.994 695.995 729.139 703.742 717.823 712.083L707.165 686.764C716.913 682.141 727.153 677.34 736.329 671.687C771.387 650.091 801.202 621.195 826.137 588.55C836.124 575.475 844.718 561.276 854.999 548.476Z"/>
	<path fill="#F5C69B" d="M346.499 534.385L345.901 534.489C337.005 535.977 328.895 535.455 320.517 531.861C304.75 525.097 291.809 512.059 285.406 496.138C279.943 482.554 279.613 466.009 285.439 452.5C289.658 442.717 296.188 437.814 305.903 433.926L311.942 453.365C314.869 462.096 317.497 470.792 321.058 479.311C326.677 492.752 333.792 505.406 341.139 517.952L343.059 521.961C343.068 524.794 343.439 527.717 344.483 530.373C345.034 531.773 345.978 532.99 346.499 534.385Z"/>
	<path fill="#B69B88" d="M311.942 453.365C314.869 462.096 317.497 470.792 321.058 479.311C326.677 492.752 333.792 505.406 341.139 517.952L341.012 518.141C339.783 519.118 338.023 519.996 336.441 520.03C328.199 520.208 319.58 514.928 313.955 509.254C305.812 501.038 300.131 488.298 300.288 476.648C300.429 466.149 304.845 460.335 311.942 453.365Z"/>
	<path fill="#FEB703" d="M869.741 219.725C886.654 219.147 904.357 221.662 920.853 225.167C931.898 227.514 942.555 230.189 953 234.577C956.666 236.117 961.345 237.835 962.815 241.892C965.147 248.328 962.706 254.877 960.035 260.722L957.626 258.097C949.377 249.973 937.637 247.14 926.68 244.627C907.12 240.14 887.283 238.307 867.25 238.509C844.043 238.491 820.851 240.256 798.269 245.853C792.114 247.378 785.442 248.983 779.854 252.06C777.126 253.562 774.751 255.795 772.407 257.823C771.082 253.814 769.657 249.683 769.499 245.427C769.413 243.108 769.739 241.572 771.388 239.89C774.526 236.689 779.575 235.107 783.65 233.459C811.261 222.294 840.359 220.664 869.741 219.725Z"/>
	<path fill="#F5C69B" d="M706.219 458.827L714.467 434.131C725.417 438.317 732.922 443.735 737.878 454.723C743.532 467.256 743.368 482.342 738.42 495.054C732.577 510.063 720.027 521.945 705.42 528.327C697.093 531.964 688.777 534.141 679.657 534.143C677.213 534.143 673.951 534.17 671.642 533.338L675.509 523.039L706.219 458.827Z"/>
	<path fill="#B69B88" d="M706.219 458.827C711.439 462.117 716.564 465.348 719.51 471L719.923 471.782C722.231 476.311 722.599 481.073 721.649 486L721.502 486.794C719.294 498.038 707.023 509.525 697.792 515.633C691.673 519.682 683.223 524.446 675.679 523.107L675.509 523.039L706.219 458.827Z"/>
	<path fill="#F5C69B" d="M915.57 391.632C923.618 392.179 931.964 393.463 938.794 398.116C946.636 403.46 951.978 412.969 953.414 422.25C954.9 431.85 952.787 441.68 946.945 449.518C941.189 457.242 932.899 461.042 923.615 462.459C917.399 462.905 911.309 462.409 905.75 459.329C896.367 454.13 889.493 444.583 886.561 434.374L886.327 433.537C885.426 430.381 884.941 426.383 885.712 423.127L885.873 422.5C887.509 415.925 890.592 408.382 894.26 402.684C896.025 399.942 911.855 392.567 915.57 391.632Z"/>
	<path fill="#498682" d="M355.351 653.445C359.126 653.162 361.948 654.279 365.364 655.714C372.446 658.687 379.003 662.835 385.771 666.444L415.62 682.468C406.598 701.874 399.337 721.104 394.73 742.044L384.652 739.214C361.101 731.473 340.264 721.447 320.095 706.991L332.953 682.962C338.544 672.526 344.125 658.795 355.351 653.445Z"/>
	<path fill="#498682" d="M665.784 651.518C670.536 653.356 674.834 657.631 678.155 661.39C690.001 674.797 696.812 690.668 704.074 706.754C702.743 708.641 699.386 710.342 697.428 711.631C680.232 722.958 661.333 731.028 641.947 737.767L628.749 741.506C622.663 720.829 616.768 700.71 606.91 681.423L665.784 651.518Z"/>
	<path fill="#FD8500" d="M928.236 254.978C936.262 257.158 943.785 260.26 950.594 265.086C951.59 267.177 950.878 272.134 950.797 274.582C950.11 295.373 947.169 316.174 940.182 335.844C933.521 354.594 922.971 372.035 908.057 385.354C903.963 389.01 899.616 392.675 894.616 395.039C893.146 395.735 888.301 397.281 887.377 398.349C886.666 399.171 885.985 401.464 885.513 402.5C883.759 406.349 881.881 410.177 880.435 414.155C878.013 420.821 878.161 426.567 878.702 433.483C876.973 431.773 875.584 429.409 874.928 427.064L874.75 426.391C873.202 420.873 873.973 413.82 874.017 408.051L848.874 409.007C846.057 401.029 837.45 396.694 830.832 392.183C834.036 391.192 837.222 391.15 840.482 390.571C851.015 388.699 860.727 385.884 869.909 380.25C876.621 376.131 882.182 370.505 887.285 364.588C904.382 344.761 914.924 319.44 920.475 294C923.292 281.088 924.439 267.643 928.236 254.978Z"/>
	<path fill="#8EC9E4" d="M274.392 598.012L269.052 577.7C256.11 521.53 260.754 460.935 276.491 405.75L282.688 385.676C283.54 383.207 284.091 380.643 285.485 378.409C285.747 395.314 286.335 412.384 291.199 428.706C288.116 431.624 284.841 434.52 282.196 437.85C274.697 447.292 270.831 459.384 270.464 471.373C269.87 490.816 276.497 509.046 289.957 523.241C293.374 526.845 297.066 530.223 300.956 533.311C302.899 534.853 306.101 536.437 307.606 538.199L307.762 538.665C308.722 541.644 309.06 544.722 309.693 547.776L313.541 564.453C318.363 583.015 324.88 600.625 333.501 617.761C338.274 627.247 343.614 636.86 350.429 645.046C347.157 646.798 344.302 648.699 341.326 650.917C333.504 647.386 326.163 642.065 319.288 636.963L289.684 612.928C284.456 608.349 278.278 603.807 274.392 598.012Z"/>
	<path fill="#8EC9E4" d="M731.685 397.385C736.545 402.342 739.611 410.823 742.27 417.191C756.923 452.281 763.72 490.295 763.322 528.262L757.803 589.06C737.356 614.536 710.703 634.087 684.223 652.794L674.446 644.762C675.915 640.898 678.45 637.058 680.399 633.394C683.761 627.075 686.992 620.519 689.66 613.874C696.131 597.76 701.118 580.866 704.051 563.737C705.325 556.299 705.788 548.72 707.228 541.329C723.442 535.709 739.48 520.485 746.978 505.25C754.638 489.685 756.276 471.102 750.633 454.63C746.623 442.925 737.329 431.877 726.201 426.483L731.685 397.385Z"/>
	<path fill="#FEB703" d="M707.165 686.764C702.326 677.238 696.651 668.494 690.15 660.034L713.064 644.055C738.625 624.375 762.073 600.916 782.043 575.603L801.497 548.49L854.999 548.476C844.718 561.276 836.124 575.475 826.137 588.55C801.202 621.195 771.387 650.091 736.329 671.687C727.153 677.34 716.913 682.141 707.165 686.764Z"/>
	<path fill="#209EBB" d="M674.446 644.762C670.312 642.503 664.332 641.474 659.75 643.034C656.299 644.209 653.126 646.567 649.88 648.232L635.276 655.434L606.934 670.113C606.343 670.453 600.609 674.078 600.315 674.036C600.132 674.009 597.753 671.531 597.427 671.231C594.903 668.91 592.098 666.805 589.178 665.009C578.177 658.241 566.386 654.996 553.531 654.318L553.274 647.954C564.575 645.176 575.264 639.826 585.292 634.039C607.495 621.227 627.248 604.893 643.115 584.676C652.622 572.564 659.781 559.937 667.099 546.48C667.215 546.267 667.226 545.941 667.447 545.841C667.631 545.759 670.514 546.448 670.921 546.523C673.975 547.087 677.137 547.554 680.25 547.47C689.38 547.221 698.702 544.374 707.228 541.329C705.788 548.72 705.325 556.299 704.051 563.737C701.118 580.866 696.131 597.76 689.66 613.874C686.992 620.519 683.761 627.075 680.399 633.394C678.45 637.058 675.915 640.898 674.446 644.762Z"/>
	<path fill="#F5C69B" d="M160.349 354.645C167.058 353.908 172.857 354.61 179.359 356.291L173.416 360.124C166.882 364.737 162.987 372.23 161.8 380.041C161.376 382.837 161.111 389.438 163.25 391.489C164.609 392.792 165.558 392.441 167.25 392.346C168.575 391.327 169.129 390.753 169.856 389.25C169.655 385.121 169.84 381.431 171.154 377.485C173.082 371.693 176.762 366.724 182.385 364.061C187.272 361.748 193.426 361.818 198.389 363.856C203.907 366.122 207.738 370.765 209.875 376.22C214.397 387.758 209.866 403.381 204.982 414.25C201.182 422.706 195.624 431.292 187.889 436.643C183.846 439.44 179.39 441.276 174.83 443.039C164.694 446.55 154 448.584 143.272 448.733C139.989 448.779 136.385 448.932 133.195 448.057C131.052 447.469 128.993 446.784 126.75 446.785C126.035 447.164 125.183 447.428 124.723 448.127C122.033 452.216 125.004 462.394 125.918 466.926C113.782 455.992 104.865 440.893 101.871 424.801C99.1267 410.05 101.481 395.807 110.099 383.354C122.241 365.807 140.104 358.303 160.349 354.645Z"/>
	<path fill="#209EBB" d="M307.606 538.199L318 542.573L318.932 542.918C326.022 545.51 334.661 547.019 342.194 546.29C343.527 546.161 352.522 544.025 352.912 544.215C353.303 544.406 355.52 549.054 355.882 549.721C359.501 556.398 363.239 563.026 367.497 569.322C392.266 605.947 428.012 635.294 470.578 648.276L470.454 653.859C468.385 655.02 463.998 654.797 461.509 655.237C446.234 657.94 432 662.631 421.33 674.495L385.023 654.725C378.451 651.252 371.67 647.012 364.5 644.976L363.961 644.817C360.139 643.757 354.154 643.716 350.429 645.046C343.614 636.86 338.274 627.247 333.501 617.761C324.88 600.625 318.363 583.015 313.541 564.453L309.693 547.776C309.06 544.722 308.722 541.644 307.762 538.665L307.606 538.199Z"/>
	<path fill="#B69B88" d="M641.931 396.555L659.373 421.099L668.131 432.522C669.044 433.693 670.911 435.484 671.507 436.786C672.028 437.924 671.773 442.071 671.834 443.555C672.599 462.287 671.919 480.369 668.786 498.856C661.49 541.908 635.562 584.704 599.814 610.107C568.058 632.674 527.313 644.235 488.569 637.566C441.044 629.386 404.665 599.946 377.508 561.279L363.402 539.232L377.012 549.8C370.656 533.89 364.634 518.275 360.581 501.582C359.454 496.939 358.077 492.122 357.913 487.323C360.012 489.919 360.578 493.136 361.594 496.25C363.188 501.139 364.749 506.028 366.72 510.781C373.47 527.059 381.866 543.397 392.416 557.557C402.132 570.595 414.624 582.757 427.514 592.669C450.184 610.102 479.394 620.823 508.038 620.969C511.704 620.988 515.608 621.23 519.242 620.741C553.384 616.149 584.146 601.765 607.445 575.969C632.761 547.941 644.111 511.494 646.949 474.44C647.567 466.374 648.284 458.515 647.819 450.407L644.505 416.25C643.618 409.621 642.26 403.267 641.931 396.555Z"/>
	<path fill="#498682" d="M642.885 888.955C644.314 900.971 647.381 911.819 645.642 924.136C642.388 947.168 623.696 966.168 605.861 979.563C572.868 1004.35 530.97 1015.94 490 1010.01C451.301 1004.41 413.002 985.969 389.187 954.133C385.565 949.292 381.989 943.95 379.867 938.265C373.931 922.363 378.97 905.298 381.259 889.122C381.727 891.931 384.55 895.009 386.094 897.4C396.617 913.697 409.115 928.163 425 939.49C434.948 946.584 445.865 952.7 457.414 956.74L457.469 956.798C462.457 959.564 469.724 961.208 475.288 962.429C494.865 966.726 515.23 968.495 535.095 964.903C570.887 958.431 602.682 939.9 626.117 912.103C632.245 904.835 637.451 896.737 642.885 888.955Z"/>
	<path fill="#FEB703" d="M163.596 546.056C148.89 518.996 139.227 487.389 134.818 456.996C149.774 457.555 164.047 456.886 178.175 451.493C180.484 460.176 182.607 468.972 185.507 477.481C202.617 527.679 233.878 571.456 271.105 608.687C280.941 618.524 291.533 627.38 302.449 635.975L317.108 647.395L332.965 657.75C333.155 657.876 334.98 659.13 335.02 659.28C335.029 659.311 324.011 679.142 315.965 693.098C313.904 691.421 310.854 690.234 308.5 688.947L292.158 679.342C270.417 665.309 250.03 648.791 231.742 630.499C214.86 613.613 199.568 595.945 185.513 576.619L172.003 557.013C169.59 553.46 167.228 548.308 163.596 546.056Z"/>
	<path fill="#209EBB" d="M504.637 176.233C528.477 176.108 551.848 179.535 574.161 188.252C600.778 198.65 624.741 214.638 639.939 239.406C643.174 244.679 645.603 250.424 648.088 256.073L659.454 229.499L659.461 254C659.412 255.152 658.361 264.549 658.621 264.934C658.805 265.205 663.577 266.694 664.237 266.952C668.364 268.562 672.257 270.573 675.992 272.953C686.241 279.482 694.509 289.389 700.663 299.774C714.351 322.874 720.492 349.721 720.705 376.427C720.745 381.473 721.149 387.511 719.921 392.408C718.387 376.608 714.05 361.137 708.811 346.193C702.982 329.565 695.655 312.01 684.044 298.5C679.51 293.225 673.909 288.538 668.073 284.768C663.84 282.034 658.334 279.486 653.354 278.686C651.885 278.45 644.085 278.17 643.284 277.533C642.429 276.853 638.623 266.967 637.595 265C632.855 255.935 626.506 247.543 619.618 240.008C605.34 224.388 586.353 212.135 566.091 205.949C554.386 202.375 542.125 200.977 529.94 200.471L543.556 227L543.25 227.568L541.25 227.481L520.171 224.819C509.524 223.659 498.143 224.037 487.5 224.967C446.512 228.547 401.687 241.92 369.288 267.876C379.421 269.279 389.184 270.4 398.84 274.06L382.5 278.034C368.457 282.034 354.355 288.565 341.777 295.937C333.182 300.974 324.995 306.686 317.032 312.666L310.314 317.937C309.788 318.36 308.645 319.554 308.123 319.703C306.61 320.136 302.353 319.229 300.695 319.047L278.539 316.873C285.982 310.509 294.194 305.045 301.528 298.49L317.888 282.61L348.301 252.995C336.939 245.436 330.049 233.739 324.977 221.372C333.632 225.215 341.7 228.759 351.101 230.471C368.397 233.621 384.942 228.931 401.355 224.053L440.069 212.63C462.357 206.907 485.27 204.021 508.25 203.498C499.015 194.036 489.334 186.476 478.188 179.384C481.497 178.132 485.675 178.009 489.171 177.668L504.637 176.233Z"/>
	<path fill="#209EBB" d="M665.684 224.217C679.226 231.895 692.181 240.64 704.574 250.067L722.061 263.932C722.646 270.884 722.893 277.762 723.92 284.679C727.893 311.438 738.373 336.909 759.494 354.655C768.196 361.966 777.839 367.917 788.618 371.592C792.91 373.056 797.029 374.313 801.612 374.268C802.236 374.262 801.978 374.205 802.486 374.442C802.341 374.881 802.016 375.297 802.05 375.757C802.115 376.629 803.225 378.586 803.597 379.461L808.245 389.847L814.095 404.206C820.896 421.085 824.858 438.614 830.393 455.861C826.904 458.866 823.491 462.088 819.479 464.378C814.614 467.155 811.483 467.089 805.958 467.029L806.032 515.247C798.783 517.292 792.589 520.465 788.791 527.24C786.657 531.046 786.183 535.614 787.546 539.731C788.549 542.761 790.453 544.981 792.506 547.338L757.803 589.06L763.322 528.262C763.72 490.295 756.923 452.281 742.27 417.191C739.611 410.823 736.545 402.342 731.685 397.385C731.353 395.747 732.036 392.888 732.17 391.088L732.95 375.882C733.329 351.721 727.113 326.346 715.686 305.067C707.466 289.762 696.776 276.456 682.259 266.723C678.127 263.952 673.761 261.194 668.951 259.789L668.351 259.62C668.906 254.242 669.325 248.538 668.909 243.13C668.422 236.792 666.781 230.473 665.684 224.217Z"/>
	<path fill="#209EBB" d="M327.371 245.585L334.283 254.059C322.268 265.877 310.507 278.653 297.724 289.615C285.148 300.399 271.239 309.792 257.709 319.333C271.476 325.357 283.968 326.557 298.611 328.599C291.559 344.238 286.733 361.273 285.485 378.409C284.091 380.643 283.54 383.207 282.688 385.676L276.491 405.75C260.754 460.935 256.11 521.53 269.052 577.7L274.392 598.012C268.354 594.209 262.866 586.078 258.129 580.625C233.271 552.012 212.828 517.935 199.067 482.622L187.229 447.408C188.268 446.444 189.41 445.847 190.62 445.121C205 436.482 214.481 420.579 218.419 404.42L218.517 403.996L219.337 401.075C219.478 397.974 220.252 394.88 220.603 391.791C221.499 383.9 220.261 377.515 217.518 370.125L231.397 345.673C250.4 315.644 273.199 289.691 300.288 266.725L327.371 245.585Z"/>
	<path fill="#FEFEFE" d="M219.337 401.075C221.851 397.726 224.204 394.627 228.674 394.045C231.23 393.712 233.414 394.601 235.355 396.216C237.581 398.067 238.709 400.421 238.957 403.285C239.181 405.868 238.143 408.524 236.485 410.483C234.684 412.61 232.056 413.933 229.25 413.983C226.271 414.037 223.734 412.944 221.75 410.74C220.101 408.908 219.336 406.28 218.517 403.996L219.337 401.075Z"/>
	<path fill="#FEB703" d="M830.832 392.183C821.753 385.637 814.563 376.935 808.282 367.749C791.671 343.454 784.729 311.895 781.589 283.009C781.037 277.932 779.522 271.413 780.751 266.41C781.339 264.021 783.414 262.37 785.398 261.138C794.166 255.693 804.476 253.751 814.497 252.006C838.523 247.823 864.252 246.705 888.587 248.647C902.01 249.718 915.118 252.005 928.236 254.978C924.439 267.643 923.292 281.088 920.475 294C914.924 319.44 904.382 344.761 887.285 364.588C882.182 370.505 876.621 376.131 869.909 380.25C860.727 385.884 851.015 388.699 840.482 390.571C837.222 391.15 834.036 391.192 830.832 392.183Z"/>
	<path fill="#209EBB" d="M379.352 219.812C384.041 217.416 388.988 215.873 393.899 214.006C416.514 205.407 439.543 198.634 463.628 195.73C469.757 194.991 476.447 194.031 482.562 195.045C477.186 196.879 470.855 197.108 465.25 198.27L434.038 205.497C420.175 208.792 406.805 213.886 393.015 217.445C388.997 218.482 383.468 220.447 379.352 219.812Z"/>
	<path fill="#209EBB" d="M915.045 548.847C920.08 548.574 925.133 548.841 930.171 548.913C933.626 548.963 937.625 549.203 940.86 547.775C944.647 546.105 947.742 542.329 949.033 538.438C950.381 534.377 949.268 529.695 947.412 526C944.192 519.592 937.944 516.704 931.479 514.631L931.369 472.288C935.798 470.774 940.008 469.21 943.875 466.508C953.983 459.442 961.293 448.526 963.368 436.25C965.454 423.899 962.433 410.115 954.954 399.992C946.994 389.217 935.125 384.228 922.271 382.418L922.304 382.009C923.459 380.677 925.352 377.875 926.901 377.155C930.344 375.556 934.969 375.375 938.679 374.426C949.052 371.774 958.282 366.939 967.091 360.981C976.731 383.71 981.989 408.217 986.026 432.5C1000.8 521.382 990.431 612.301 956.692 695.815C935.7 747.778 905.38 796.271 867.448 837.577C822.765 886.234 765.713 926.589 704.925 952.393L646.258 974.38C646.28 971.472 646.937 968.351 647.327 965.459C648.222 958.819 649.342 952.446 651.354 946.043C653.479 939.282 656.099 932.696 657.146 925.645C659.053 912.795 656.075 898.644 654.525 885.882L680.054 874.663C707.779 861.355 734.496 845.456 758.764 826.541C788.857 803.087 816.363 775.411 838.75 744.459C880.502 686.732 906.23 619.453 915.045 548.847Z"/>
	<path fill="#FEFEFE" d="M928.3 631.25C929.705 631.055 931.137 630.836 932.542 631.138C934.853 631.635 936.745 633.29 937.987 635.25C939.164 637.108 939.388 639.818 938.754 641.906C937.939 644.589 935.513 646.001 933.25 647.33C931.781 647.547 929.987 647.629 928.5 647.502C926.697 647.349 925.238 646.295 924.13 644.899C922.478 642.818 922.035 639.807 922.558 637.25C923.109 634.553 926.08 632.512 928.3 631.25Z"/>
	<path fill="#209EBB" d="M381.259 889.122C383.281 867.029 387.745 844.932 391.4 823.047L399.35 776.452C404.295 747.425 410.264 717.805 423.21 691.147C425.471 686.491 428.379 681.317 432.163 677.723C438.987 671.243 448.321 668.072 457.036 665.069C458.97 669.679 459.771 674.461 462.124 678.999C468.307 690.923 480.679 699.965 493.333 703.99C509.441 709.113 526.529 707.515 541.454 699.629C555.567 692.173 562.763 680.629 567.361 665.816C573.44 668.26 580.174 670.633 585.706 674.158C590.528 677.23 594.013 681.866 597.051 686.607C603.562 696.765 607.344 708.349 610.695 719.853L619.856 755.63L628.761 793.718L634.873 829.337L641.299 875.525C641.79 879.394 643.33 885.167 642.885 888.955C637.451 896.737 632.245 904.835 626.117 912.103C602.682 939.9 570.887 958.431 535.095 964.903C515.23 968.495 494.865 966.726 475.288 962.429C469.724 961.208 462.457 959.564 457.469 956.798L457.414 956.74C445.865 952.7 434.948 946.584 425 939.49C409.115 928.163 396.617 913.697 386.094 897.4C384.55 895.009 381.727 891.931 381.259 889.122Z"/>
	<path fill="#045087" d="M634.873 829.337L641.299 875.525C641.79 879.394 643.33 885.167 642.885 888.955C637.451 896.737 632.245 904.835 626.117 912.103C602.682 939.9 570.887 958.431 535.095 964.903C515.23 968.495 494.865 966.726 475.288 962.429C469.724 961.208 462.457 959.564 457.469 956.798L457.414 956.74L484.5 950.493C497.586 947.322 510.602 943.626 523.143 938.688C559.019 924.562 592.562 900.469 614.356 868.373C622.67 856.129 628.969 842.861 634.873 829.337Z"/>
	<path fill="#FEB703" d="M510.039 745.25C511.134 745.002 511.971 744.956 513.085 745.186C518.132 746.227 521.188 753.207 523.706 757.233L531.26 769.444C532.162 770.974 533.834 774.545 535.219 775.579C536.079 776.222 539.205 776.691 540.327 776.962L560.007 781.563C562.894 782.329 566.203 783.01 568.876 784.352C570.237 785.036 571.319 785.997 572.097 787.31C573.069 788.948 573.418 791.042 572.854 792.885C571.686 796.705 567.82 800.271 565.249 803.249L552.313 818.149C551.845 818.68 549.562 820.869 549.431 821.415C549.27 822.08 550.321 825.418 550.471 826.25L553.25 844.17C553.862 848.197 555.194 852.989 553.89 856.938C553.192 859.052 551.678 860.456 549.75 861.448C545.977 861.8 542.446 860.232 538.953 858.978C530.847 856.068 522.958 852.294 515.128 848.707C509.538 846.024 484.764 863.942 476.046 860.512C473.835 859.642 472.219 858.048 471.543 855.746C470.269 851.408 471.769 845.707 472.375 841.325L474.37 825.849C474.47 825.109 475.273 821.505 475.095 821.003C474.799 820.174 472.437 818.159 471.75 817.377L459.232 802.912C456.968 800.332 453.064 796.843 451.787 793.648C451.052 791.809 451.463 789.629 452.221 787.869C452.801 786.52 453.452 785.547 454.72 784.759C458.729 782.267 464.388 781.735 468.938 780.728L481.791 777.622C483.478 777.269 486.915 776.961 488.221 776.015C490.366 774.461 491.69 771.488 492.984 769.238L500.209 756.75C502.857 752.218 504.947 747.424 510.039 745.25Z"/>
	<path fill="#F5C69B" d="M357.913 487.323C356.232 481.302 355.646 474.605 355.234 468.383C353.703 445.307 357.581 422.857 368.279 402.228C378.948 381.655 394.689 365.623 416.947 358.336C421.836 356.736 427.082 356.079 432.165 355.355C428.948 357.7 425.314 359.45 422.017 361.711C412.826 368.011 404.378 375.281 396.599 383.251L443.594 375.814C462.963 372.734 482.441 369.272 501.006 362.765C523.287 354.956 544.247 342.67 561.931 327.021C568.701 321.031 574.717 314.284 580.716 307.544C578.091 314.095 575.571 320.716 572.09 326.875C560.253 347.822 541.429 363.084 520.818 374.836L507.075 381.806C516.522 380.735 526.44 377.734 535.417 374.709C558.409 366.959 578.73 357.051 597.699 341.802C603.792 336.903 608.413 330.409 614.389 325.636C616.693 336.199 618.705 346.482 622.356 356.715C627.371 370.765 635.038 383.413 641.931 396.555C642.26 403.267 643.618 409.621 644.505 416.25L647.819 450.407C648.284 458.515 647.567 466.374 646.949 474.44C644.111 511.494 632.761 547.941 607.445 575.969C584.146 601.765 553.384 616.149 519.242 620.741C515.608 621.23 511.704 620.988 508.038 620.969C479.394 620.823 450.184 610.102 427.514 592.669C414.624 582.757 402.132 570.595 392.416 557.557C381.866 543.397 373.47 527.059 366.72 510.781C364.749 506.028 363.188 501.139 361.594 496.25C360.578 493.136 360.012 489.919 357.913 487.323Z"/>
	<path fill="#013148" d="M429.504 391.571C433.044 391.494 437.267 390.934 440.484 392.715C441.946 393.524 443.504 395.052 443.856 396.75C444.256 398.676 443.818 399.376 442.75 400.926C441.56 401.55 440.923 401.925 439.537 401.764C435.302 401.274 431.058 401.071 426.899 402.179L426 402.432C420.189 404.029 414.912 407.151 409.726 410.142L399.339 414.936C399.491 414.414 399.677 413.962 399.955 413.493C406.877 401.79 416.542 395.093 429.504 391.571Z"/>
	<path fill="#013148" d="M508.002 461.619C515.784 461.074 522.122 462.182 528.258 467.36C532.195 470.684 535.505 474.705 535.907 480C535.416 480.735 535.037 481.242 534.236 481.66C534.064 481.75 532.643 482.47 532.5 482.442C531.267 482.203 526.827 474.391 525.283 472.974C522.968 470.85 520.147 469.523 517.182 468.577L516.562 468.387C513.237 468.112 508.667 467.963 505.5 469.074C501.16 470.596 497.303 473.323 495.281 477.535C494.706 478.733 494.118 480.213 493.287 481.25C492.341 482.431 491.108 482.362 489.75 482.497C488.643 481.978 488.333 481.505 487.708 480.47C487.889 478.056 488.766 476.006 489.953 473.905C493.992 466.758 500.406 463.656 508.002 461.619Z"/>
	<path fill="#013148" d="M586.318 390.609C588.374 390.385 590.831 390.523 592.864 390.903C607.128 393.572 615.589 403.896 623.393 415.231L614.612 411.507C608.25 407.257 600.639 401.778 592.928 400.47L592.25 400.368C587.559 399.631 583.391 401.233 578.75 401.732C577.445 400.92 575.977 399.511 575.801 397.875C575.676 396.714 576.274 395.437 576.928 394.517C578.972 391.645 583.107 391.223 586.318 390.609Z"/>
	<path fill="#013148" d="M585.848 442.75C586.692 442.577 587.314 442.5 588.171 442.517C590.598 442.564 592.847 443.915 594.415 445.75C599.203 451.354 599.823 461.061 598.836 468.047C598.019 473.839 595.767 478.688 591.059 482.25C589.886 482.717 588.427 482.925 587.177 482.689C585.035 482.284 583.575 480.915 582.347 479.192C577.729 472.711 576.975 463.237 578.481 455.575C579.465 450.567 581.452 445.66 585.848 442.75Z"/>
	<path fill="#013148" d="M434.016 442.75C435.105 442.502 436.511 442.322 437.584 442.68C440.276 443.577 442.677 446.859 443.934 449.25C447.335 455.718 447.381 465.48 445.265 472.317C443.856 476.867 441.472 479.946 437.25 482.156C436.14 482.503 434.782 482.551 433.639 482.299C431.361 481.797 429.516 479.493 428.356 477.597C424.366 471.074 424.348 461.3 426.099 454C427.314 448.933 429.553 445.485 434.016 442.75Z"/>
	<path fill="#FD8500" d="M584.519 509.318C584.523 506.022 584.487 502.959 585.327 499.75L585.521 498.988C586.922 493.728 590.671 488.997 595.372 486.274C599.809 483.705 605.07 482.742 610.058 484.171C615.883 485.84 620.996 490.293 623.8 495.603C626.651 501.002 626.936 506.829 625.116 512.598C623.755 516.909 620.346 522.199 616.202 524.219C611.145 526.684 605.013 527.66 599.622 525.758C593.194 523.491 589.817 518.64 584.932 514.38L584.519 509.318Z"/>
	<path fill="#FD8500" d="M438.813 511.47C436.283 514.31 434.993 518.107 432.192 520.674L431.647 521.15C428.743 523.728 425.514 525.423 421.75 526.352C416.523 527.643 410.006 526.537 405.493 523.609C400.342 520.266 396.361 514.529 395.277 508.456C394.325 503.122 395.887 496.59 399.144 492.25C402.495 487.784 407.82 483.596 413.509 483.094C419.647 482.553 425.698 484.038 430.39 488.144C436.662 493.632 437.886 501.129 438.688 508.979L438.813 511.47Z"/>
	<path fill="#013148" d="M438.688 508.979C476.912 529.027 522.067 531.404 563.062 518.609C570.544 516.273 577.708 513.194 584.519 509.318L584.932 514.38C584.123 534.608 579.026 552.286 565.988 568.188C554.134 582.645 536.342 594.428 517.5 596.599L516.611 596.714C499.698 598.722 481.541 589.319 468.8 579.091C448.022 562.409 441.511 536.753 438.813 511.47L438.688 508.979Z"/>
	<path fill="#FEFEFE" d="M510.272 559.633C515.773 558.746 523.315 559.202 528.424 561.619C532.978 563.773 536.407 566.829 537.977 571.755C538.853 574.504 538.396 577.263 536.938 579.75C533.45 585.702 524.956 587.564 518.789 589.291C511.663 590.158 503.557 589.391 497.289 585.68C494.069 583.774 490.993 580.664 490.187 576.894C489.591 574.106 490.064 571.116 491.696 568.75C495.885 562.676 503.49 560.885 510.272 559.633Z"/>
	<path fill="#FD8500" d="M877.813 94.0691C880.16 93.9141 882.249 94.1245 884.463 94.975C886.503 95.7586 889.02 97.3162 889.877 99.3943C891.375 103.027 891.403 106.012 889.752 109.558C888.02 113.276 884.91 114.818 881.312 116.205C879.555 116.215 877.423 116.292 875.763 115.697C872.636 114.578 869.845 111.674 868.607 108.635C867.453 105.803 867.34 103.519 868.713 100.712C870.573 96.9074 873.988 95.3023 877.813 94.0691Z"/>
	<path fill="#FD8500" d="M139.712 81.0074C141.368 81.0075 142.278 81.1454 143.75 81.9213C146.919 85.9728 146.374 93.2011 146.525 98.1678C146.552 99.0468 146.372 100.943 146.627 101.714C146.805 102.253 148.036 103.347 148.503 103.838C152.095 107.615 158.002 109.926 158.966 115.5C158.71 116.689 158.437 117.377 157.563 118.259C153.571 122.289 147.153 121.554 143.12 125.621C138.798 129.978 138.949 137.338 134.462 141.568C133.254 142.707 131.865 143.196 130.228 143.015C126.545 142.607 122.648 137.323 120.436 134.592C119.213 132.904 116.737 129.701 114.902 128.791C111.788 127.245 107.747 127.071 104.365 126.38C101.833 125.863 98.9627 125.509 97.4824 123.25C97.1141 117.921 100.836 114.36 103.741 110.31C104.421 109.361 105.998 107.258 106.236 106.141C106.371 105.502 105.835 103.641 105.721 102.934C105.087 98.966 103.332 91.9731 104.841 88.0967C107.504 81.2569 120.026 89.3592 124.474 89.8839C124.658 89.9055 126.004 89.1777 126.162 89.0948C130.882 86.6252 134.743 83.1384 139.712 81.0074Z"/>
	<path fill="#FD8500" d="M137.374 879.55L138.75 879.496C140.207 879.539 140.829 879.688 141.839 880.794C144.269 883.455 143.926 888.124 143.72 891.458C143.556 894.105 142.884 898.655 143.415 901.145C143.749 902.708 147.717 906.315 148.949 907.74C151.358 910.528 153.776 913.381 153.505 917.25C150.747 922.331 142.147 921.75 137.547 924.579C131.44 928.333 128.487 936.233 122.697 940.763L120.75 939.532C116.602 936.905 114.352 933.174 111.738 929.137C110.541 927.459 109.146 925.497 107.356 924.441C102.624 921.648 93.7356 922.209 90.7683 917.199C90.1589 910.088 98.4275 907.148 100.457 901.284C102.268 896.053 98.5122 887.808 101.198 882.962C101.603 882.231 102.194 881.496 102.789 880.913C104.063 879.665 105.359 879.707 107 879.989C111.691 880.795 117.545 886.195 122.146 885.842C123.517 885.737 126.224 884.207 127.488 883.596C130.771 882.012 133.88 880.604 137.374 879.55Z"/>
	<path fill="#FD8500" d="M906.031 882.25C906.349 882.128 906.699 881.976 907.039 881.938C907.96 881.835 908.405 881.859 909.117 882.44C914.711 887.008 911.465 897.781 914.044 903.75C916.319 909.017 926.701 913.475 926.496 919.5C926.355 923.63 917.919 926.036 914.945 927.559C913.001 928.554 911.311 929.677 909.783 931.25C907.56 933.539 906.4 936.698 904.966 939.5C903.53 942.304 901.981 944.411 899.753 946.635C894.333 945.695 890.677 940.735 887.222 936.869C880.647 930.064 871.861 934.413 864.527 930.25C863.54 928.83 863.389 927.521 863.786 925.851C865.093 920.341 869.838 915.905 870.857 910.428C871.274 908.185 870.46 905.286 870.051 903.054C869.276 898.828 868.576 895.066 869.118 890.75C872.849 887.117 880.582 890.573 885 891.917C885.766 892.15 887.699 893.022 888.43 892.977C889.439 892.915 891.987 891.05 892.851 890.486C897.172 887.667 901.35 884.439 906.031 882.25Z"/>
	<path fill="#209EBB" d="M374.858 971.81L373.674 971.623C369.371 970.707 364.944 968.899 360.75 967.518L326 954.569C313.561 949.468 301.192 944.173 289.225 938.028C219.66 902.304 158.92 848.197 114.843 783.634C65.5332 711.407 36.1001 624.194 31.5363 536.845C29.4077 496.106 32.4811 455.452 40.1158 415.397C57.7303 322.983 107.193 236.401 173.897 170.685C193.684 151.192 215.086 133.098 238.096 117.507C313.244 66.5898 401.031 35.4275 492.027 31.463C510.494 30.6584 528.594 31.5461 546.996 33.0137C565.367 34.4789 583.772 36.5427 601.875 40.053C694.087 57.9335 779.566 102.953 845.828 169.554C859.072 182.867 872.94 197.042 883.464 212.614C874.45 212.302 865.531 211.807 856.5 212.105C842.23 212.576 827.954 214.358 813.942 217.03L797.172 220.791C794.096 221.591 790.504 223.035 787.394 223.423L787.024 223.19C780.257 218.799 774.167 212.48 768.03 207.225C756.791 197.6 745.242 188.306 732.839 180.214C706.762 163.201 679.64 148.622 650.5 137.506C605.296 120.262 554.977 111.137 506.571 111.68C482.147 111.953 456.683 115.049 432.773 119.932C330.996 140.719 235.704 203.665 178.399 290.525C170.009 303.242 162.372 316.336 155.268 329.812C152.442 335.174 149.031 340.854 147.476 346.729L148.432 347.175L147.813 347.507C143.545 349.729 138.049 350.671 133.503 352.686C116.161 360.37 101.311 374.186 95.0825 392.461C91.4076 403.242 90.5935 415.805 92.8637 427C94.5809 435.468 97.2159 443.769 101.592 451.282C104.361 456.037 107.922 460.501 111.119 464.985C114.843 468.602 118.624 472.407 122.903 475.363C124.284 476.318 128.608 478.498 129.301 479.823C130.094 481.34 130.453 483.997 130.943 485.692L135.303 500.288C140.409 516.095 146.233 531.837 153.25 546.904C162.834 567.484 174.241 587.955 187.308 606.531C194.947 617.391 204.226 627.773 211.082 639.107C213.349 645.184 216.393 650.881 219.321 656.655C235.282 688.139 257.414 717.659 283.247 741.754C288.185 746.359 293.271 751.278 298.985 754.905C302.366 758.532 305.308 762.631 308.865 766.079C321.332 778.166 337.178 783.297 352.55 790.414L382.048 805.815L370.389 887.385C368.688 899.037 366.505 910.603 366.514 922.429C366.52 929.957 368.047 936.827 369.366 944.181L374.858 971.81ZM111.119 464.985C109.342 488.157 108.164 511.509 109.477 534.738C114.356 621.021 147.986 703.577 204.258 769.197C233.547 803.352 268.746 833.738 307.641 856.519C327.741 868.292 349.026 878.146 370.389 887.385L382.048 805.815L352.55 790.414C337.178 783.297 321.332 778.166 308.865 766.079C305.308 762.631 302.366 758.532 298.985 754.905C293.271 751.278 288.185 746.359 283.247 741.754C257.414 717.659 235.282 688.139 219.321 656.655C216.393 650.881 213.349 645.184 211.082 639.107C204.226 627.773 194.947 617.391 187.308 606.531C174.241 587.955 162.834 567.484 153.25 546.904C146.233 531.837 140.409 516.095 135.303 500.288L130.943 485.692C130.453 483.997 130.094 481.34 129.301 479.823C128.608 478.498 124.284 476.318 122.903 475.363C118.624 472.407 114.843 468.602 111.119 464.985Z"/>
	<path fill="#FEFEFE" d="M505.215 65.5519C507.528 65.413 509.556 65.7522 511.75 66.5124C514.946 67.6195 517.312 70.2386 518.596 73.3128C519.845 76.3031 519.781 79.5043 518.626 82.5C516.928 86.8999 513.729 88.4971 509.66 90.3468C507.864 90.6113 506.002 90.4912 504.25 89.9896C501.274 89.1378 498.627 87.0962 497.175 84.3455C495.601 81.362 495.38 76.5715 496.508 73.4472C498.045 69.1871 501.34 67.3 505.215 65.5519Z"/>
	<path fill="#FEFEFE" d="M190.497 193.023C193.047 193.086 195.282 193.209 197.681 194.177C201.669 195.785 204.589 199.038 206.139 203C207.633 206.818 207.302 211.594 205.474 215.25C203.354 219.493 199.229 221.847 194.85 223.143C191.943 223.116 189.533 222.936 186.798 221.774C182.817 220.081 180.168 216.838 178.702 212.828C177.27 208.913 177.778 204.464 179.685 200.798C182.04 196.271 185.846 194.367 190.497 193.023Z"/>
</svg>
