<svg width="25.000000" height="24.000000" viewBox="0 0 25 24" fill="none" xmlns="http://www.w3.org/2000/svg" xmlns:xlink="http://www.w3.org/1999/xlink">
	<desc>
			Created with Pixso.
	</desc>
	<defs/>
	<path id="path" d="M20.16 9.86L23.8 6.57L23.82 6.55C24.01 6.37 24.18 6.18 24.32 5.97C24.47 5.76 24.59 5.54 24.69 5.3C24.79 5.07 24.87 4.83 24.92 4.58C24.97 4.34 25 4.09 25 3.83C25 3.58 24.97 3.33 24.92 3.09C24.87 2.84 24.79 2.6 24.69 2.37C24.59 2.13 24.47 1.91 24.32 1.7C24.17 1.49 24.01 1.3 23.82 1.12C23.64 0.94 23.44 0.78 23.22 0.64C23 0.5 22.77 0.38 22.53 0.29C22.28 0.19 22.03 0.12 21.78 0.07C21.52 0.02 21.26 0 21 0C20.73 0 20.47 0.02 20.22 0.07C19.96 0.12 19.71 0.19 19.46 0.29C19.22 0.38 18.99 0.5 18.77 0.64C18.56 0.78 18.35 0.94 18.17 1.12C18.17 1.13 18.15 1.13 18.15 1.14L14.72 4.64L4.34 1.01C4.16 0.95 3.97 0.94 3.79 0.98C3.6 1.02 3.43 1.1 3.3 1.23L0.3 4.11C0.19 4.22 0.11 4.33 0.06 4.47C0.01 4.61 -0.01 4.75 0.01 4.89C0.02 5.03 0.07 5.16 0.15 5.29C0.22 5.41 0.32 5.51 0.45 5.59L8.43 10.7L6.58 12.47L4 12.47C3.72 12.48 3.48 12.57 3.29 12.76L0.29 15.64C0.23 15.69 0.18 15.75 0.14 15.82C0.09 15.89 0.06 15.96 0.04 16.04C0.01 16.11 0 16.19 0 16.27C-0.01 16.35 0 16.43 0.02 16.51C0.03 16.58 0.06 16.66 0.09 16.73C0.13 16.8 0.17 16.87 0.23 16.93C0.28 16.99 0.34 17.04 0.4 17.09C0.47 17.14 0.54 17.18 0.62 17.2L5.22 18.97L7.06 23.38L7.07 23.4C7.1 23.48 7.14 23.54 7.19 23.61C7.24 23.67 7.3 23.73 7.36 23.78C7.43 23.83 7.5 23.87 7.57 23.91C7.65 23.94 7.73 23.96 7.81 23.98C7.89 23.99 7.97 24 8.05 23.99C8.14 23.99 8.22 23.97 8.3 23.95C8.38 23.92 8.45 23.89 8.52 23.85C8.59 23.81 8.66 23.76 8.71 23.7L11.7 20.83C11.89 20.65 11.99 20.42 11.99 20.15L11.99 17.67L13.84 15.9L19.16 23.57C19.25 23.69 19.35 23.78 19.48 23.86C19.61 23.93 19.75 23.98 19.9 23.99C20.05 24 20.19 23.99 20.33 23.94C20.47 23.89 20.6 23.82 20.7 23.71L23.7 20.83C23.84 20.7 23.93 20.54 23.97 20.36C24.01 20.18 24 20 23.93 19.83L20.16 9.86ZM20.15 21.53L14.83 13.86C14.65 13.61 14.41 13.47 14.09 13.43C14.06 13.43 14.03 13.43 14 13.43C13.72 13.43 13.48 13.53 13.29 13.72L10.29 16.6C10.09 16.78 10 17.01 9.99 17.27L9.99 19.76L8.36 21.33L6.92 17.87C6.82 17.62 6.63 17.44 6.37 17.34L2.78 15.96L4.41 14.39L7 14.39C7.27 14.39 7.51 14.3 7.7 14.11L10.7 11.23C10.81 11.13 10.89 11.01 10.94 10.88C10.99 10.74 11.01 10.6 10.99 10.46C10.98 10.32 10.93 10.18 10.85 10.06C10.78 9.94 10.67 9.84 10.55 9.76L2.57 4.64L4.25 3.03L14.65 6.66C14.84 6.72 15.03 6.73 15.23 6.69C15.42 6.65 15.59 6.56 15.72 6.42L19.59 2.47C19.78 2.29 20 2.16 20.24 2.06C20.48 1.97 20.74 1.92 21 1.92C21.26 1.93 21.52 1.98 21.76 2.07C22 2.17 22.21 2.31 22.4 2.49C22.59 2.67 22.73 2.87 22.83 3.1C22.93 3.34 22.98 3.58 22.99 3.83C22.99 4.08 22.94 4.33 22.84 4.56C22.74 4.79 22.6 5 22.42 5.18L18.31 8.89C18.17 9.03 18.07 9.19 18.03 9.37C17.98 9.56 17.99 9.74 18.06 9.92L21.84 19.91L20.15 21.53Z" fill="#F29A2E" fill-opacity="1.000000" fill-rule="nonzero"/>
</svg>
