<svg width="26.000000" height="22.000000" viewBox="0 0 26 22" fill="none" xmlns="http://www.w3.org/2000/svg" xmlns:xlink="http://www.w3.org/1999/xlink">
	<desc>
			Created with Pixso.
	</desc>
	<defs/>
	<path id="path" d="M24 0L2 0C1.73 0 1.47 0.05 1.23 0.15C0.98 0.25 0.77 0.39 0.58 0.58C0.39 0.77 0.25 0.98 0.15 1.23C0.05 1.47 0 1.73 0 2L0 20C0 20.26 0.05 20.52 0.15 20.76C0.25 21.01 0.39 21.22 0.58 21.41C0.77 21.6 0.98 21.74 1.23 21.84C1.47 21.94 1.73 22 2 22L24 22C24.26 22 24.52 21.94 24.76 21.84C25.01 21.74 25.22 21.6 25.41 21.41C25.6 21.22 25.74 21.01 25.84 20.76C25.94 20.52 26 20.26 26 20L26 2C26 1.73 25.94 1.47 25.84 1.23C25.74 0.98 25.6 0.77 25.41 0.58C25.22 0.39 25.01 0.25 24.76 0.15C24.52 0.05 24.26 0 24 0ZM24 2L24 14.84L20.74 11.58C20.55 11.39 20.33 11.25 20.09 11.15C19.84 11.05 19.59 11 19.32 11C19.06 11 18.8 11.05 18.56 11.15C18.31 11.25 18.1 11.39 17.91 11.58L15.41 14.08L9.91 8.58C9.72 8.39 9.5 8.25 9.26 8.15C9.01 8.05 8.76 8 8.49 8C8.23 8 7.97 8.05 7.73 8.15C7.48 8.25 7.27 8.39 7.08 8.58L2 13.67L2 2L24 2ZM2 16.5L8.5 10L18.5 20L2 20L2 16.5ZM24 20L21.32 20L16.82 15.5L19.32 13L24 17.67L24 20ZM15 7.5C15 7.3 15.03 7.1 15.11 6.92C15.19 6.74 15.29 6.58 15.43 6.43C15.58 6.29 15.74 6.19 15.92 6.11C16.1 6.03 16.3 6 16.5 6C16.69 6 16.89 6.03 17.07 6.11C17.25 6.19 17.42 6.29 17.56 6.43C17.7 6.58 17.8 6.74 17.88 6.92C17.96 7.1 18 7.3 18 7.5C18 7.69 17.96 7.89 17.88 8.07C17.8 8.25 17.7 8.41 17.56 8.56C17.42 8.7 17.25 8.8 17.07 8.88C16.89 8.96 16.69 9 16.5 9C16.3 9 16.1 8.96 15.92 8.88C15.74 8.8 15.58 8.7 15.43 8.56C15.29 8.41 15.19 8.25 15.11 8.07C15.03 7.89 15 7.69 15 7.5Z" fill="#5990D9" fill-opacity="1.000000" fill-rule="nonzero"/>
</svg>
