<?xml version="1.0" encoding="utf-8" ?>
<svg xmlns="http://www.w3.org/2000/svg" xmlns:xlink="http://www.w3.org/1999/xlink" width="1024" height="1024">
	<path fill="#023044" d="M176.392 1024C185.89 934.583 217.119 847.353 286 786.49C286.754 785.823 290.245 783.009 290.097 782.123C289.78 780.223 286.82 776.544 285.838 774.498C280.73 763.853 278.788 751.932 279.522 740.208C280.341 727.118 286.452 713.768 293.589 703C296.14 699.151 299.004 695.165 302.481 692.103C306.932 688.182 308.204 681.626 310.978 676.5C320.883 658.199 336.085 645.019 353.541 634.226C344.501 621.339 335.576 608.047 329.65 593.382L324.164 596.195C308.463 603.636 291.102 603.427 275.02 597.463C259.991 591.89 245.719 579.931 239.001 565.262C228.383 542.077 229.86 513.41 245.085 492.52C246.364 490.765 253.498 484.075 253.611 483.599C254.15 481.325 252.981 476.228 252.772 473.711L251.611 453.857C250.787 432.719 251.756 411.273 254.641 390.325C256.737 375.109 259.627 360.13 264.977 345.693C258.535 340.392 252.639 335.037 248.594 327.623C245.68 322.281 242.564 315.371 244.558 309.25C245.627 305.969 248.202 303.55 251.25 302.057C255.895 299.783 262.23 299.205 267.304 297.795C282.233 293.646 295.185 286.148 307.436 276.762C330.597 259.015 349.296 237.063 370.293 217.031C380.685 207.115 391.696 198.158 403.398 189.834C409.827 185.261 416.543 180.609 423.54 176.96C475.752 149.728 541.283 143.854 597.398 161.858C634.319 173.703 668.402 196.443 690.088 228.928C694.562 235.63 698.1 243.046 701.794 250.197C706.07 249.524 710.604 249.081 714.542 247.176C719.882 244.592 723.552 238.344 729.16 236.584C732.435 235.556 736.593 236.374 739.554 238.019C744.181 240.59 747.365 244.598 748.75 249.714C750.886 257.603 746.724 265.05 742.862 271.609C760.928 280.225 776.892 289.167 784.247 308.939C785.547 312.432 786.429 316.654 784.733 320.163C783.261 323.209 780.284 327.37 776.866 328.31C771.576 329.764 758.665 319.502 754.099 316.541L762.788 335.211C775.884 368.309 779.226 401.111 775.486 436.344C773.817 452.058 771.377 466.958 765.087 481.535C769.506 484.902 773.662 488.466 777.29 492.697C787.196 504.248 792.399 522.326 791.162 537.369C789.649 555.772 781.698 572.935 767.518 584.937C756.214 594.504 742.97 600.465 728.069 601.28C723.869 601.51 719.457 600.973 715.264 600.616L691.625 649.403L692.222 650.228C696.85 656.566 702.044 662.21 706.289 668.903C709.549 674.044 711.856 680.029 715.443 684.901C718.283 688.759 722.254 691.745 725.199 695.548C738.754 713.055 748.375 735.824 745.095 758.327C743.683 768.008 739.023 776.34 734.314 784.755C750.374 798.055 764.441 813.916 777.005 830.5C807.208 870.364 828.122 916.215 838.83 965.075C841.554 977.506 843.945 990.062 845.154 1002.75L846.468 1024L834.703 1024L826.769 1024L734.109 1024L709.839 1024L702.774 1024L321.234 1024L312.678 1024L288.898 1024L195.798 1024L188.352 1024L176.392 1024Z"/>
	<path fill="#FD8500" d="M701.633 574.12C707.166 579.237 713.732 581.817 720.748 584.26L730.208 587.067C732.086 587.574 734.257 587.747 735.586 589.285C722.107 591.402 710.931 589.486 698.699 583.48L701.633 574.12Z"/>
	<path fill="#FD8500" d="M712.45 512.536L713.357 512.321C717.524 511.255 721.929 506.539 725.883 504.42C727.984 503.294 730.36 502.843 732.633 502.198C739.252 500.32 746.872 501.282 752.876 504.638L754.418 505.615L755.203 506.135C758.189 508.157 761.105 510.916 763.006 514L763.358 514.561C765.122 517.421 767.975 522.511 766.832 525.953C766.563 526.765 766.075 527.526 765.615 528.241C764.02 524.87 762.233 521.401 759.557 518.75C754.735 513.971 747.757 511.355 741 511.538C732.56 511.767 723.358 515.369 717.353 521.444C715.256 523.565 713.752 526.238 711.702 528.441L712.45 512.536Z"/>
	<path fill="#8DCAE5" d="M691.625 649.403C690.469 649.327 686.716 645.562 685.549 644.684C680.821 641.124 675.678 638.258 670.579 635.275L695.549 593.289C701.867 596.835 708.124 599.316 715.264 600.616L691.625 649.403Z"/>
	<path fill="#FCB973" d="M244.544 544.569L244.27 542.146C242.754 526.077 246.228 509.278 256.76 496.675C262.265 490.087 271.212 485.152 279.834 484.554C289.7 483.869 299.843 489.139 307.043 495.48L306.953 506.794C296.958 502.854 285.722 499.728 275.402 504.381C265.62 508.79 258.863 516.741 255.208 526.767L250.282 544.543L244.544 544.569Z"/>
	<path fill="#8DCAE5" d="M451.478 704.64C454.815 704.911 458.143 706.459 461.362 707.368L480.393 712.187C504.919 717.257 531.061 716.187 555.371 710.412C561.175 709.033 566.921 707.037 572.604 705.227L572.584 717.58C550.476 729.74 524.092 739.085 498.734 732.781C483.519 728.998 470.061 721.662 458.239 711.396C455.895 709.361 453.1 707.315 451.478 704.64Z"/>
	<path fill="#FD8500" d="M270.375 522.48C273.935 519.256 277.727 517.193 282.5 516.441L283.359 516.301C285.363 515.994 287.016 516.011 289.011 516.31L289.645 516.401C295.561 517.337 301.763 521.778 305.203 526.614C310.433 533.967 312.007 542.837 314.211 551.399L320.007 570.45C315.049 571.655 307.483 571.381 302.551 570.211C296.912 568.874 292.455 566.408 287.656 563.25L286.673 562.612C279.331 557.552 272.402 548.764 270.351 539.961C269.777 537.5 269.934 534.487 270.004 531.972C270.078 529.331 271.24 525.522 270.594 523.045L270.375 522.48Z"/>
	<path fill="#8DCAE5" d="M371.583 417.504C377.833 414.384 385.115 412.892 391.759 410.81L430.061 398.587C462.03 387.977 493.14 374.231 522.883 358.466C521.069 366.583 518.912 374.041 514.764 381.296L470.103 400.023C445.607 409.052 418.589 414.456 392.593 416.42C385.563 416.951 378.638 417.625 371.583 417.504Z"/>
	<path fill="#FD8500" d="M703.358 568.442L711.275 532.467C711.884 530.801 713.403 529.537 714.642 528.329C718.219 524.839 721.87 522.168 726.447 520.13C731.393 517.928 735.627 516.843 741.156 516.781C747.621 516.708 754.382 519.674 759.043 524.05C760.818 525.716 762.165 527.786 763.947 529.435L764.536 529.971L764.51 530.618C764.468 531.916 764.423 533.002 764.763 534.257C765.522 537.061 764.601 539.404 763.637 542.017C759.521 553.168 752.527 564.063 741.435 569.213C732.324 573.442 719.517 574.539 710.038 571.069C707.889 570.282 705.374 569.496 703.358 568.442Z"/>
	<path fill="#FEB703" d="M244.544 544.569L250.282 544.543L255.208 526.767C258.863 516.741 265.62 508.79 275.402 504.381C285.722 499.728 296.958 502.854 306.953 506.794L308.673 522.834C302.244 517.11 295.275 511.175 286.054 511.554C278.991 511.845 271.96 514.879 267.206 520.172C262.614 525.284 259.176 531.753 259.525 538.75L260.75 539.992C261.9 539.485 261.52 539.894 261.988 538.731C262.966 536.297 263.311 533.656 264.247 531.206C265.538 527.827 267.844 525.005 270.375 522.48L270.594 523.045C271.24 525.522 270.078 529.331 270.004 531.972C269.934 534.487 269.777 537.5 270.351 539.961C272.402 548.764 279.331 557.552 286.673 562.612L287.656 563.25C292.455 566.408 296.912 568.874 302.551 570.211C307.483 571.381 315.049 571.655 320.007 570.45L324.767 583.532C319.183 586.225 313.689 588.786 307.544 589.947C292.537 592.781 277.924 587.907 265.615 579.478C253.617 571.263 247.176 558.535 244.544 544.569Z"/>
	<path fill="#FEB703" d="M712.45 512.536L712.296 495.043C722.523 487.886 733.922 484.221 746.443 486.486C757.101 488.414 766.155 494.811 772.171 503.735C780.383 515.92 782.101 531.038 779.127 545.21C775.996 560.138 766.541 573.738 753.75 582.017C747.977 585.753 742.236 587.696 735.586 589.285C734.257 587.747 732.086 587.574 730.208 587.067L720.748 584.26C713.732 581.817 707.166 579.237 701.633 574.12L703.358 568.442C705.374 569.496 707.889 570.282 710.038 571.069C719.517 574.539 732.324 573.442 741.435 569.213C752.527 564.063 759.521 553.168 763.637 542.017C764.601 539.404 765.522 537.061 764.763 534.257C764.423 533.002 764.468 531.916 764.51 530.618L764.536 529.971L765.615 528.241C766.075 527.526 766.563 526.765 766.832 525.953C767.975 522.511 765.122 517.421 763.358 514.561L763.006 514C761.105 510.916 758.189 508.157 755.203 506.135L754.418 505.615L752.876 504.638C746.872 501.282 739.252 500.32 732.633 502.198C730.36 502.843 727.984 503.294 725.883 504.42C721.929 506.539 717.524 511.255 713.357 512.321L712.45 512.536Z"/>
	<path fill="#FD8500" d="M631.6 674.021L635.654 677.25C641.474 682.53 645.146 689.549 645.474 697.476C646.506 722.399 627.652 743.334 611.922 760.54L611.966 747.391C611.155 742.864 610.062 738.996 607.731 734.99C602.273 725.608 594.034 721.798 583.949 719.126L583.728 701.361C591.856 697.393 599.984 693.741 607.882 689.281C616.066 684.66 623.835 679.302 631.6 674.021Z"/>
	<path fill="#FD8500" d="M391.556 673.237C397.397 676.526 402.529 680.925 408.244 684.427C417.831 690.3 428.071 695.081 438.186 699.96C438.594 701.881 438.395 704.084 438.402 706.058L438.425 718.025C434.448 719.857 429.802 721.426 426.16 723.841C418.329 729.034 413.48 736.812 411.613 745.954C410.98 750.983 411.136 755.731 411.52 760.777L408.067 757.377C393.391 742.854 377.515 721.894 377.68 700.115C377.769 688.465 383.814 681.064 391.556 673.237Z"/>
	<path fill="#209EBB" d="M710.694 808.09L726.439 792.24C791.753 848.843 828.308 934.417 834.465 1019.64L834.703 1024L826.769 1024L822.299 996.333C811.777 941.658 789.158 888.673 753.039 846.024C744.363 835.779 734.976 825.713 724.363 817.443C720.061 814.092 715.217 811.15 710.694 808.09Z"/>
	<path fill="#209EBB" d="M188.352 1024L194.218 981.738C205.585 921.745 230.589 863.357 270.726 816.961C278.781 807.649 287.728 799.239 296.596 790.721L311.934 807.384L311.406 807.98C308.192 811.465 303.272 814.278 299.629 817.42C292.061 823.947 285.004 831.363 278.351 838.816C245.16 875.994 222.361 920.56 208.19 968.132C202.77 986.328 199.055 1005.31 195.798 1024L188.352 1024Z"/>
	<path fill="#FCB973" d="M572.584 717.58L572.68 732.313C572.776 736.248 573.084 740.287 572.475 744.191C571.289 751.8 561.437 759.348 555.464 763.408C538.683 774.814 515.909 778.077 496.258 774.303C476.682 770.543 460.586 759.005 449.506 742.617C449.51 737.66 448.633 706.408 450.045 704.606L451.478 704.64C453.1 707.315 455.895 709.361 458.239 711.396C470.061 721.662 483.519 728.998 498.734 732.781C524.092 739.085 550.476 729.74 572.584 717.58Z"/>
	<path fill="#246881" d="M436.004 730.75C436.375 730.81 436.773 730.842 437.007 731.25C437.122 731.45 437.022 733.621 437.029 733.996C437.081 736.985 437.166 740.032 437.533 743C438.396 749.977 442.904 756.448 447.652 761.423C463.248 777.765 484.649 788.413 507.5 788.723C530.859 789.039 555.775 782.38 572.707 765.477C582.05 756.15 584.337 744.8 584.457 732.113C586.836 733.125 589.499 734.097 591.641 735.547C595.487 738.151 597.552 742.615 598.505 747.024L598.693 747.917C599.972 753.642 599.577 759.909 599.678 765.769C599.692 766.553 600.025 769.684 599.751 770.257C599.353 771.091 593.781 774.379 592.666 775.172C570.74 790.76 545.93 806.19 532.198 830.079C528.772 836.04 526.309 842.646 524.251 849.186C522.978 855.611 521.539 862.079 521.143 868.637L520.544 899.573L520.059 936.623L520.006 954.884C519.99 956.876 520.341 959.816 519.943 961.709C519.866 962.075 519.306 962.846 519.107 963.169C517.92 965.101 515.582 967.506 513.25 967.918C511.372 968.25 509.1 968.237 507.5 967.078C505.25 965.448 503.653 963.474 503.211 960.687C502.769 957.906 503.011 954.826 503.013 952L503.012 935.738C503.007 911.769 504.106 886.879 500.817 863.062C497.562 839.495 486.383 818.875 468.737 802.943C455.221 790.74 439.311 780.849 424.823 769.783C423.576 761.322 422.067 749.077 426.097 741.274L426.512 740.5C428.723 736.319 432.079 733.304 436.004 730.75Z"/>
	<path fill="#8DCAE5" d="M481.348 420.755C496.124 419.895 510.738 418.929 525.343 416.364C551.879 411.704 576.606 402.549 600.051 389.347C612.878 382.124 625.878 373.167 636.555 362.967C637.12 362.427 640.319 359.079 640.591 359.047C640.683 359.036 644.583 362.445 644.953 362.776C648.895 366.294 652.235 370.546 655.597 374.609C683.285 408.077 697.95 454.774 700.203 497.761C702.827 547.805 686.568 601.657 652.595 639.076C618.158 677.007 570.904 700.946 519.469 703.291C499.744 704.191 480.174 700.953 461.245 695.633C457.268 694.516 451.805 693.301 448.463 690.897C452.507 690.52 456.936 691.532 460.963 691.948L482.451 693.763C520.175 695.811 561.141 689.468 593.778 669.346C619.107 653.729 641.417 633.972 656.855 608.27C668.387 589.071 675.734 567.367 680.708 545.62C693.792 488.41 681.785 427.677 651.004 378.234C631.171 400.133 605.149 415.738 576.708 423.669C551.109 430.808 526.429 431.754 500.416 426.642C494.252 425.431 487.364 424.23 481.861 421.06L481.348 420.755Z"/>
	<path fill="#FD8500" d="M359.531 641.771L383.071 665.669L379.42 669.336C370.506 678.564 366.208 689.336 366.497 702.161C366.715 711.857 369.919 721.436 374.102 730.09C385.098 752.834 405.446 770.981 425.635 785.65C438.93 795.31 452.957 804.57 464.777 816.056C476 826.961 485.524 840.776 489.089 856.223C491.158 865.188 491.442 874.26 491.544 883.417L417.25 859.915C395.879 852.585 374.751 843.116 355.203 831.781C330.26 817.317 307.828 800.972 294.996 774.255C292.95 769.748 291.444 765.061 290.393 760.23C285.94 739.753 294.135 721.794 305.031 704.982C305.204 709.95 304.108 715.184 304.131 720.25C304.21 737.465 309.717 753.689 318.649 768.277C337.789 799.538 370.523 823.018 403.025 838.716C409.4 841.796 416.59 845.699 423.476 847.342C420.266 844.95 416.11 843.059 412.584 841.119L392.974 830.274C367.788 816.294 343.345 796.516 327.467 772.259C313.824 751.417 307.929 727.272 313.214 702.637C318.965 675.836 337.002 656.254 359.531 641.771Z"/>
	<path fill="#FD8500" d="M663.503 644.168C673.677 648.671 683.597 656.977 690.482 665.617C705.712 684.728 714.541 706.776 711.454 731.5C706.395 772.023 671.808 804.636 639.415 826.087L616.587 840.292C612.811 842.564 608.897 844.385 605.393 847.107C639.368 832.939 672.922 811.091 695.33 781.317C708.497 763.822 718.148 743.238 718.78 721.042C718.964 714.583 718.14 708.281 717.219 701.906C723.117 708.369 727.134 716.419 730.235 724.516C736.57 741.058 736.752 758.363 729.482 774.635L728.591 776.478C721.073 791.401 708.738 803.75 695.645 813.893C667.539 835.667 633.739 850.636 600.304 862.18L531.407 883.34C531.45 871.485 532.493 859.24 536.521 848C547.473 817.441 577.278 801.184 601.623 782.416C610.613 775.486 619.216 767.63 626.931 759.302C642.718 742.261 657.226 719.878 656.021 695.75C655.392 683.145 648.828 675.01 639.922 666.867L663.503 644.168Z"/>
	<path fill="#209EBB" d="M530.388 163.71L571.5 167.948C600.636 173.449 630.201 185.273 653.265 204.182C663.949 212.942 673.11 223.274 681.079 234.512C683.588 238.05 685.894 241.914 687.67 245.88C689.229 249.361 690.457 253.22 692.669 256.359C694.839 259.441 697.261 259.511 700.75 260.174C707.836 261.52 717.838 257.566 723.636 253.439C726.147 251.651 729.141 248.567 732.073 247.75C733.294 247.41 734.347 247.396 735.425 248.128C737.253 249.37 738.244 251.559 738.459 253.703C739.311 262.188 730.986 270.609 725.905 276.553L745.24 284.653C760.542 291.403 770.142 301.597 776.197 317.106C764.56 310.636 752.815 304.994 739.469 303.254C739.453 305.75 739.112 308.845 739.8 311.247L739.958 311.75C740.804 314.5 742.334 316.846 743.667 319.371C769.59 368.451 772.677 424.235 756.119 476.886C754.453 477.143 752.076 476.249 750.396 475.933L740.63 474.48C739.758 472.323 741.355 464.183 741.568 461.552C742.575 449.128 742.441 436.773 741.874 424.337C740.814 401.063 737.966 376.05 725.118 355.972C717.925 344.731 708.677 336.822 695.26 334.696C694.371 334.555 690.223 334.262 690.009 333.511C689.542 331.871 689.744 329.154 689.638 327.383C689.405 323.502 688.984 319.743 688.297 315.915C684.47 294.573 674.006 272.708 659.933 256.226C632.005 223.517 592.005 204.791 549.378 201.408C495.702 194.304 442.135 218.169 399.269 248.463C385.453 258.227 373.16 269.679 360.866 281.243C351.041 290.484 340.939 299.986 332.203 310.27C305.131 342.139 289.033 381.482 282.579 422.586C280.767 434.128 279.99 445.839 279.957 457.513L280.193 467.683C280.308 469.667 280.718 471.93 280.384 473.875C274.345 474.566 269.641 475.609 264.1 478.085C260.829 447.915 262.012 415.116 266.743 385.132C268.509 373.937 270.714 362.716 273.877 351.825L276.535 343.064C276.646 342.713 277.385 340.762 277.337 340.538C277.334 340.522 276.54 339.722 276.43 339.612C273.823 337.002 270.82 335.337 267.88 333.179C260.916 328.068 257.375 320.997 253.845 313.351C268.56 309.416 283.42 305.428 296.859 298.025C320.201 285.167 339.342 264.507 357.799 245.642C368.519 234.684 379.704 223.806 391.833 214.403C421.548 191.366 457.233 175.299 494.107 168.052C506.129 165.69 518.183 164.544 530.388 163.71Z"/>
	<path fill="#246881" d="M311.934 807.384C342.647 833.796 380.043 853.059 418.5 865.515L484.239 885.936C478.673 888.955 472.407 891.759 466.5 894.063C462.086 895.785 457.478 896.993 453.132 898.912L453.026 899.368L416.103 913.144C406.898 917.071 397.497 921.476 389.007 926.798C364.243 942.323 342.594 965.076 331.206 992.141C327.09 1001.92 322.89 1013.49 321.234 1024L312.678 1024L288.898 1024L195.798 1024C199.055 1005.31 202.77 986.328 208.19 968.132C222.361 920.56 245.16 875.994 278.351 838.816C285.004 831.363 292.061 823.947 299.629 817.42C303.272 814.278 308.192 811.465 311.406 807.98L311.934 807.384Z"/>
	<path fill="#023044" d="M288.898 1024L295.521 957.342L297.43 937.534C297.764 934.244 297.86 930.917 298.539 927.675L312.678 1024L288.898 1024Z"/>
	<path fill="#246881" d="M588.463 905.759C586.75 904.079 583.509 903.283 581.251 902.431L558.139 894.694L537.423 886.578L550.421 881.889L590.829 870.301C624.439 859.785 657.062 846.202 686.42 826.531C694.808 820.91 702.647 814.205 710.694 808.09C715.217 811.15 720.061 814.092 724.363 817.443C734.976 825.713 744.363 835.779 753.039 846.024C789.158 888.673 811.777 941.658 822.299 996.333L826.769 1024L734.109 1024L709.839 1024L702.774 1024L695.579 997.754C682.114 962.09 654.283 935.272 620.286 918.789C614.785 916.123 609.176 913.578 603.461 911.409C598.645 909.58 593.562 908.096 588.886 905.957L588.463 905.759Z"/>
	<path fill="#023044" d="M709.839 1024L719.34 957.75L721.955 939.654C722.404 936.554 722.6 932.957 723.64 930.002L734.109 1024L709.839 1024Z"/>
	<path fill="#FEB703" d="M453.026 899.368L453.946 899.196C458.257 898.34 462.621 896.513 466.836 895.191C475.061 892.609 483.541 890.249 491.587 887.177L491.744 939.233C491.75 946.434 490.601 955.055 491.984 962.025C492.718 965.727 494.569 969.427 497.25 972.109C501.379 976.24 506.356 978.068 512.146 977.975C517.088 977.894 521.914 975.501 525.258 971.908C527.592 969.401 529.057 966.739 530.102 963.5L530.331 962.807C532.29 956.422 531.213 947.893 531.097 941.28L530.998 907.036C530.997 900.754 530.424 893.86 531.403 887.669L588.463 905.759L588.886 905.957C593.562 908.096 598.645 909.58 603.461 911.409C609.176 913.578 614.785 916.123 620.286 918.789C654.283 935.272 682.114 962.09 695.579 997.754L702.774 1024L321.234 1024C322.89 1013.49 327.09 1001.92 331.206 992.141C342.594 965.076 364.243 942.323 389.007 926.798C397.497 921.476 406.898 917.071 416.103 913.144L453.026 899.368Z"/>
	<path fill="#FCB973" d="M481.348 420.755L481.861 421.06C487.364 424.23 494.252 425.431 500.416 426.642C526.429 431.754 551.109 430.808 576.708 423.669C605.149 415.738 631.171 400.133 651.004 378.234C681.785 427.677 693.792 488.41 680.708 545.62C675.734 567.367 668.387 589.071 656.855 608.27C641.417 633.972 619.107 653.729 593.778 669.346C561.141 689.468 520.175 695.811 482.451 693.763L460.963 691.948C456.936 691.532 452.507 690.52 448.463 690.897C439.772 689.209 431.644 684.409 423.989 680.152C377.139 654.101 342.545 608.052 328.044 556.7C319.162 525.244 311.746 485.638 328.695 455.657C332.814 448.37 338.157 441.806 343.966 435.806C352.251 427.251 359.887 420.737 371.583 417.504C378.638 417.625 385.563 416.951 392.593 416.42C418.589 414.456 445.607 409.052 470.103 400.023L514.764 381.296C506.503 396.892 492.724 406.611 479.639 417.776C478.82 418.475 478.482 418.34 478.54 419.5C479.507 420.089 480.21 420.575 481.348 420.755Z"/>
	<path fill="#023044" d="M509.486 551.635C514.091 551.183 519.379 552.522 523.485 554.595C527.448 556.595 532.431 560.157 533.896 564.5L532.985 565.75L531.75 565.908C527.517 560.651 522.43 556.722 515.715 555.277L515.068 555.148L512.5 555.025C502.644 555.246 498.338 559.429 491.75 566.055L490.888 565.75L490.259 564.25C490.414 563.609 490.543 563.063 490.906 562.5C493.92 557.819 500.472 553.647 505.784 552.4L509.486 551.635Z"/>
	<path fill="#023044" d="M508.554 614.69C517.819 612.982 530.313 617.086 538.242 621.714C540.422 622.986 543.842 625.218 544.496 627.75L543.5 628.904C541.371 629.072 538.833 626.367 536.96 625.152C534.645 623.649 532.192 622.395 529.654 621.313C525.15 619.393 520.686 618.693 515.866 618.032C505.765 617.84 496.979 619.59 488.382 624.931C485.968 626.431 483.879 628.358 481.5 629.903C480.503 628.935 480.463 628.611 480.091 627.25C483.579 623.089 488.71 620.119 493.75 618.255C498.481 616.505 503.547 615.266 508.554 614.69Z"/>
	<path fill="#023044" d="M596.164 431.589C598.689 431.336 601.42 431.294 603.911 431.798C611.648 433.366 618.433 435.967 625.25 439.983C630.219 442.911 636.142 448.121 637.326 454.023C637.838 456.578 637.554 458.844 636.171 461.037C633.902 464.635 630.548 465.597 626.624 466.379C617.938 467.072 607.613 465.14 599.471 462.032C594.139 459.997 588.842 456.952 586.532 451.434C584.819 447.343 585.205 442.808 587.04 438.83C588.903 434.791 592.22 433.095 596.164 431.589Z"/>
	<path fill="#023044" d="M423.652 431.555C427.384 431.457 430.362 431.23 433.793 432.974C439.345 435.796 441.08 441.486 442.898 446.966C442.002 449.374 441.147 451.937 439.581 454.002C432.44 463.417 417.004 465.786 406.119 467.253C404.352 467.886 400.192 467.61 398.363 467.181L397.75 467.027C396.232 466.674 394.765 466.352 393.337 465.699C390.932 464.6 389.034 462.843 388.227 460.304C387.202 457.077 387.969 454.033 389.638 451.16C391.524 447.915 395.037 445.108 398.108 443.018C405.905 437.71 414.594 434.066 423.652 431.555Z"/>
	<path fill="#023044" d="M601.998 485.707C604.087 485.682 606.404 485.734 608.45 486.189C615.868 487.841 621.98 492.692 625.854 499.162C631.49 508.573 633.189 520.894 630.537 531.5C629.318 536.373 627.501 540.702 624.454 544.717C619.575 551.149 612.669 555.04 604.758 556.215C598.732 556.625 593.047 554.533 588.326 550.824C580.658 544.8 576.864 534.777 575.767 525.364C574.589 515.261 577.133 503.71 583.611 495.694C588.275 489.923 594.681 486.564 601.998 485.707Z"/>
	<path fill="#FEFEFE" d="M601.157 493.987C602.979 493.912 604.745 493.943 606.5 494.505C609.919 495.6 612.21 498.121 613.623 501.356C614.819 504.093 614.779 506.461 613.704 509.23C612.269 512.924 609.675 514.962 606.114 516.507L600.218 516.448C597.454 515.004 594.928 513.159 593.585 510.25C592.368 507.613 591.921 504.08 593.013 501.315C594.63 497.225 597.42 495.709 601.157 493.987Z"/>
	<path fill="#023044" d="M416.176 486.061C421.68 485.236 428.176 486.707 432.85 489.718C440.905 494.907 444.762 503.952 446.685 512.961C448.803 522.881 446.989 534.052 441.832 542.836C437.402 550.38 430.573 554.3 422.287 556.487C416.479 557.294 411.628 555.951 406.652 553.02C399.146 548.597 394.418 540.183 392.351 531.94C389.751 521.578 391.306 508.633 396.961 499.452C401.571 491.967 407.752 488.13 416.176 486.061Z"/>
	<path fill="#FEFEFE" d="M418.755 495.033L422.75 495.005C426.06 495.403 428.972 497.503 430.834 500.202C432.394 502.463 433.443 505.275 432.817 507.963C431.656 512.952 429.349 515.135 425.045 517.753C423.659 518.098 422.154 518.025 420.75 517.797C417.701 517.303 414.954 515.615 413.25 513.02C411.281 510.022 410.768 506.57 411.601 503.1C412.56 499.107 415.444 497.018 418.755 495.033Z"/>
</svg>
