<svg width="30.000000" height="29.000000" viewBox="0 0 30 29" fill="none" xmlns="http://www.w3.org/2000/svg" xmlns:xlink="http://www.w3.org/1999/xlink">
	<desc>
			Created with Pixso.
	</desc>
	<defs/>
	<path id="path" d="M15 -0.01C14.5 0 14.01 0.02 13.53 0.07C13.04 0.11 12.55 0.18 12.07 0.28C11.59 0.37 11.11 0.48 10.64 0.62C10.17 0.76 9.71 0.92 9.26 1.1C8.8 1.28 8.36 1.49 7.93 1.71C7.49 1.94 7.07 2.18 6.67 2.44C6.26 2.71 5.86 2.99 5.48 3.29C5.1 3.59 4.74 3.91 4.39 4.25C4.05 4.58 3.72 4.93 3.4 5.3C3.09 5.67 2.8 6.05 2.53 6.44C2.26 6.84 2 7.24 1.77 7.66C1.54 8.08 1.33 8.51 1.14 8.95C0.95 9.39 0.79 9.83 0.64 10.29C0.5 10.74 0.38 11.2 0.29 11.67C0.19 12.13 0.12 12.6 0.07 13.07C0.02 13.55 0 14.02 0 14.49L0 26.72C0 27.02 0.06 27.31 0.17 27.59C0.29 27.87 0.46 28.12 0.68 28.33C0.9 28.54 1.16 28.71 1.45 28.82C1.73 28.94 2.03 28.99 2.35 28.99L15 28.99C15.49 28.99 15.98 28.97 16.47 28.92C16.95 28.88 17.44 28.81 17.92 28.72C18.4 28.62 18.88 28.51 19.35 28.37C19.82 28.23 20.28 28.07 20.74 27.89C21.19 27.71 21.63 27.51 22.07 27.28C22.5 27.06 22.92 26.81 23.33 26.55C23.74 26.29 24.13 26 24.51 25.7C24.89 25.4 25.25 25.08 25.6 24.75C25.95 24.41 26.28 24.06 26.59 23.69C26.9 23.33 27.19 22.95 27.47 22.55C27.74 22.16 27.99 21.75 28.22 21.33C28.46 20.91 28.67 20.48 28.85 20.04C29.04 19.6 29.21 19.16 29.35 18.7C29.49 18.25 29.61 17.79 29.71 17.32C29.8 16.86 29.87 16.39 29.92 15.92C29.97 15.44 30 14.97 30 14.49C30 14.02 29.97 13.55 29.92 13.07C29.87 12.6 29.8 12.13 29.71 11.67C29.61 11.2 29.49 10.74 29.35 10.29C29.21 9.83 29.04 9.38 28.85 8.95C28.67 8.51 28.46 8.08 28.22 7.66C27.99 7.24 27.74 6.83 27.47 6.44C27.19 6.04 26.9 5.66 26.59 5.3C26.28 4.93 25.95 4.58 25.6 4.24C25.25 3.91 24.89 3.59 24.51 3.29C24.13 2.98 23.74 2.7 23.33 2.44C22.92 2.17 22.5 1.93 22.07 1.71C21.63 1.48 21.19 1.28 20.74 1.1C20.28 0.92 19.82 0.76 19.35 0.62C18.88 0.48 18.4 0.37 17.92 0.27C17.44 0.18 16.95 0.11 16.47 0.06C15.98 0.02 15.49 -0.01 15 -0.01ZM15 26.67L2.39 26.67L2.39 14.49C2.39 14.1 2.42 13.7 2.46 13.3C2.5 12.9 2.56 12.51 2.64 12.12C2.72 11.73 2.82 11.34 2.94 10.96C3.06 10.58 3.2 10.2 3.35 9.83C3.51 9.47 3.69 9.1 3.88 8.75C4.08 8.4 4.29 8.06 4.52 7.73C4.75 7.4 4.99 7.08 5.26 6.77C5.52 6.46 5.79 6.16 6.09 5.88C6.38 5.6 6.68 5.33 7 5.08C7.32 4.83 7.65 4.59 7.99 4.37C8.34 4.15 8.69 3.94 9.06 3.75C9.42 3.56 9.79 3.39 10.17 3.24C10.55 3.09 10.94 2.95 11.34 2.84C11.73 2.72 12.13 2.63 12.54 2.55C12.94 2.47 13.35 2.41 13.76 2.37C14.17 2.33 14.58 2.31 15 2.31C15.41 2.31 15.82 2.33 16.23 2.37C16.64 2.41 17.05 2.47 17.45 2.55C17.86 2.63 18.26 2.72 18.65 2.84C19.05 2.95 19.44 3.09 19.82 3.24C20.2 3.39 20.57 3.56 20.93 3.75C21.3 3.94 21.65 4.15 22 4.37C22.34 4.59 22.67 4.83 22.99 5.08C23.31 5.33 23.61 5.6 23.9 5.88C24.2 6.16 24.47 6.46 24.74 6.77C25 7.08 25.24 7.4 25.47 7.73C25.7 8.06 25.91 8.4 26.11 8.75C26.3 9.1 26.48 9.47 26.64 9.83C26.79 10.2 26.93 10.58 27.05 10.96C27.17 11.34 27.27 11.73 27.35 12.12C27.43 12.51 27.49 12.9 27.53 13.3C27.57 13.7 27.6 14.1 27.6 14.49C27.6 14.89 27.57 15.29 27.53 15.69C27.49 16.09 27.43 16.48 27.35 16.87C27.27 17.26 27.17 17.65 27.05 18.03C26.93 18.41 26.79 18.79 26.64 19.16C26.48 19.52 26.3 19.88 26.11 20.24C25.91 20.59 25.7 20.93 25.47 21.26C25.24 21.59 25 21.91 24.74 22.22C24.47 22.53 24.2 22.83 23.9 23.11C23.61 23.39 23.31 23.66 22.99 23.91C22.67 24.16 22.34 24.4 22 24.62C21.65 24.84 21.3 25.05 20.93 25.24C20.57 25.42 20.2 25.59 19.82 25.75C19.44 25.9 19.05 26.03 18.65 26.15C18.26 26.27 17.86 26.36 17.45 26.44C17.05 26.52 16.64 26.58 16.23 26.62C15.82 26.66 15.41 26.67 15 26.67ZM16.79 15.07C16.79 15.31 16.75 15.53 16.66 15.74C16.57 15.95 16.44 16.14 16.27 16.31C16.1 16.47 15.9 16.59 15.68 16.68C15.46 16.77 15.23 16.81 15 16.81C14.76 16.81 14.53 16.77 14.31 16.68C14.09 16.59 13.89 16.47 13.72 16.31C13.55 16.14 13.42 15.95 13.33 15.74C13.24 15.53 13.2 15.31 13.2 15.07C13.2 14.84 13.24 14.62 13.33 14.41C13.42 14.2 13.55 14.01 13.72 13.84C13.89 13.68 14.09 13.56 14.31 13.47C14.53 13.38 14.76 13.33 15 13.33C15.23 13.33 15.46 13.38 15.68 13.47C15.9 13.56 16.1 13.68 16.27 13.84C16.44 14.01 16.57 14.2 16.66 14.41C16.75 14.62 16.79 14.84 16.79 15.07ZM10.2 15.07C10.2 15.31 10.15 15.53 10.06 15.74C9.97 15.95 9.84 16.14 9.67 16.31C9.5 16.47 9.3 16.59 9.08 16.68C8.86 16.77 8.63 16.81 8.39 16.81C8.16 16.81 7.93 16.77 7.71 16.68C7.49 16.59 7.29 16.47 7.12 16.31C6.95 16.14 6.82 15.95 6.73 15.74C6.64 15.53 6.6 15.31 6.6 15.07C6.6 14.84 6.64 14.62 6.73 14.41C6.82 14.2 6.95 14.01 7.12 13.84C7.29 13.68 7.49 13.56 7.71 13.47C7.93 13.38 8.16 13.33 8.39 13.33C8.63 13.33 8.86 13.38 9.08 13.47C9.3 13.56 9.5 13.68 9.67 13.84C9.84 14.01 9.97 14.2 10.06 14.41C10.15 14.62 10.2 14.84 10.2 15.07ZM23.39 15.07C23.39 15.31 23.35 15.53 23.26 15.74C23.17 15.95 23.04 16.14 22.87 16.31C22.7 16.47 22.5 16.59 22.28 16.68C22.06 16.77 21.83 16.81 21.6 16.81C21.36 16.81 21.13 16.77 20.91 16.68C20.69 16.59 20.49 16.47 20.32 16.31C20.15 16.14 20.02 15.95 19.93 15.74C19.84 15.53 19.79 15.31 19.79 15.07C19.79 14.84 19.84 14.62 19.93 14.41C20.02 14.2 20.15 14.01 20.32 13.84C20.49 13.68 20.69 13.56 20.91 13.47C21.13 13.38 21.36 13.33 21.6 13.33C21.83 13.33 22.06 13.38 22.28 13.47C22.5 13.56 22.7 13.68 22.87 13.84C23.04 14.01 23.17 14.2 23.26 14.41C23.35 14.62 23.39 14.84 23.39 15.07Z" fill="#F29A2E" fill-opacity="1.000000" fill-rule="nonzero"/>
</svg>
