<?xml version="1.0" encoding="utf-8" ?>
<svg xmlns="http://www.w3.org/2000/svg" xmlns:xlink="http://www.w3.org/1999/xlink" width="1024" height="1024">
	<path fill="#013148" d="M162.22 1024C165.341 1011.36 168.854 998.134 173.307 985.892C188.929 942.952 214.747 903.73 249.182 873.626C258.396 865.571 268.212 857.424 278.698 851.101C279.588 850.565 280.433 850.062 281.403 849.675C281.004 843.316 280.814 837.062 282.83 830.93C288.106 814.886 302.045 802.394 316.746 794.865L324.597 791.489C324.388 786.687 324.093 781.796 324.703 777.015C327.059 758.542 335.891 744.54 348.237 731.158C358.048 720.524 369.984 712.545 382.938 706.268L402.906 697.63C373.108 680.922 346.019 655.495 329.828 625.251C325.674 617.492 321.891 609.313 319.48 600.826L319.206 599.812C307.192 608.139 294.505 612.489 279.793 609.79C260.913 606.326 243.729 592.177 233.233 576.497C222.85 560.986 217.019 541.09 220.692 522.531C223.729 507.188 232.463 490.563 245.774 481.776C253.799 476.478 262.579 475.344 271.832 473.896L261.008 438.685C239.122 433.416 219.607 418.53 204.449 402.293C199.134 396.6 193.824 390.5 189.729 383.854C187.873 380.842 185.617 377.105 186.429 373.463C186.86 371.528 188.44 369.983 190.111 369.006C192.539 367.586 195.742 367.392 198.481 366.994C201.728 366.522 204.867 365.925 208.045 365.094C225.459 360.542 240.965 352.326 253.284 339.051C255.219 336.966 258.307 334.035 259.376 331.451C234.668 312.85 215.372 285.342 206.77 255.597C205.624 251.634 204.16 247.337 203.59 243.25C203.317 241.3 203.173 238.809 204.493 237.25L207.645 234.259C212.001 234.683 216.318 235.637 220.685 235.749C257.16 236.681 287.406 221.087 317.45 202.159C308.725 191.844 303.282 181.143 300.201 167.973C298.975 162.731 298.072 157.295 298.615 151.893C298.763 150.429 299.968 149.859 301.079 149.012C302.825 147.683 304.65 146.974 306.732 146.344C310.799 149.296 314.609 152.735 318.764 155.52C328.938 162.34 340.097 162.797 351.906 160.979C363.234 159.236 373.992 154.603 384.669 150.614L417.54 139.221C439.928 132.405 464.367 128.043 487.815 128.881C505.564 129.515 523.555 133.281 540.46 138.585C546.555 140.497 552.476 143.039 558.425 145.358C565.775 148.224 573.54 150.83 580.636 154.246C588.196 157.886 595.317 162.447 602.107 167.357C615.644 177.145 628.384 188.265 639.777 200.488L652.75 214.601C654.6 216.678 656.878 220.219 659.039 221.789C660.238 222.66 663.205 222.644 664.726 222.819C673.291 223.809 681.182 226.207 689.032 229.811C730.42 248.808 756.653 298.674 763.635 341.956C766.562 360.098 766.815 378.096 766.032 396.408C765.587 406.803 765.015 417.084 763.585 427.405L758.75 453.305C757.992 456.506 753.152 472.684 753.568 473.827C769.927 476.742 782.515 484.256 792.123 497.961C803.148 513.689 807.281 533.655 803.961 552.501C800.777 570.579 787.785 587.244 772.863 597.383C760.419 605.837 742.9 610.924 727.965 608.037C719.859 606.47 713.249 603.053 706.504 598.433C702.838 607.972 698.899 617.705 693.787 626.575C681.468 647.948 663.625 667.793 644.444 683.123C637.802 688.431 630.969 693.601 623.533 697.755C632.027 701.841 641.043 705.705 649.178 710.448C653.652 713.056 657.909 716.431 662.048 719.548C676.634 730.532 690.89 744.597 696.957 762.25C698.466 766.639 699.576 771.376 700.016 776C700.266 778.623 700.425 781.274 700.395 783.909C700.386 784.721 700.053 787.259 700.289 787.897C700.439 788.303 711.873 794.746 712.726 795.288C720.741 800.371 728.199 806.268 734.032 813.797C738.457 819.509 742.107 826.422 743.479 833.565C744.051 836.54 744.436 839.802 744.303 842.829C744.27 843.571 743.696 848.115 743.914 848.478C744.105 848.796 745.434 849.431 745.836 849.685L752.805 854.155C760.251 859.013 767.03 864.458 773.841 870.154C803.109 894.633 826.403 925.142 842.05 959.947C845.28 967.13 848.509 974.501 850.922 982C852.595 987.195 853.552 992.747 854.719 998.079L860.639 1024L848.771 1024L615.453 1024L613.106 1024L527.017 1024L497.276 1024L409.817 1024L406.675 1024L173.69 1024L162.22 1024Z"/>
	<path fill="#FEB702" d="M695.219 808.02C695.957 805.819 696.599 802.47 698.04 800.702C710.998 808.226 725.754 817.624 729.968 833L730.618 836.25L730.751 837.073C732.044 845.82 729.77 854.744 725.697 862.455C724.02 859.405 726.382 850.991 726.638 847.309C726.922 843.225 726.472 838.348 724.765 834.614C719.379 822.833 707.277 812.634 695.219 808.02Z"/>
	<path fill="#FEB702" d="M296.632 860.214C292.891 853.104 290.913 843.305 292.933 835.438C297.218 818.746 312.194 809.333 326.161 801.223L328.191 807.586L324.068 810.328C317.848 814.565 311.821 820.293 307.592 826.511C302.831 833.508 299.505 840.831 298.277 849.264C297.778 852.686 297.895 855.671 296.94 859.085L296.751 859.792L296.632 860.214Z"/>
	<path fill="#FEB702" d="M607.343 706.72L613.039 704.04C642.288 717.605 675.69 733.585 687.39 766.216C690.601 775.17 690.985 786.518 688.374 795.665C688.021 795.366 687.517 795.183 687.315 794.767C686.988 794.095 687.142 791.199 687.093 790.254C686.894 786.372 686.717 782.179 685.782 778.406L684.785 774.578C681.932 766.807 678.659 760.106 673.56 753.5C664.831 742.192 652.71 733.133 640.901 725.289C635.714 721.844 630.728 718.398 625.214 715.468C619.371 712.365 612.822 710.418 607.343 706.72Z"/>
	<defs>
		<linearGradient id="gradient_0" gradientUnits="userSpaceOnUse" x1="366.38611" y1="726.69031" x2="385.97635" y2="766.9201">
			<stop offset="0" stop-color="#FFC660"/>
			<stop offset="1" stop-color="#FFDE74"/>
		</linearGradient>
	</defs>
	<path fill="url(#gradient_0)" d="M335.509 799.07C333.501 791.772 333.461 781.984 335.236 774.69C336.914 767.796 339.245 761.312 342.539 755C354.182 732.697 379.531 718.151 402.113 709.134C406.134 707.529 410.402 705.385 414.608 704.361C416.577 703.881 420.953 706.873 422.86 707.881C394.713 715.472 362.378 735.343 347.48 761C343.043 768.64 339.237 777.325 337.635 786.049C336.864 790.246 336.989 795.064 335.509 799.07Z"/>
	<path fill="#209EBB" d="M180.821 1000.81C183.498 991.127 187.273 981.64 191.245 972.424C204.39 941.925 223.337 914.003 247.124 890.796C258.601 879.599 271.304 869.755 283.993 859.998L286.547 866.367C277.742 873.603 268.547 880.436 260.146 888.147C234.49 911.692 213.766 939.545 197.006 970L182.427 998.837C181.909 999.824 181.833 1000.32 180.821 1000.81Z"/>
	<path fill="#FC8500" d="M527.025 1001.21L527.435 987.349L612.57 957.156L612.674 975.773C609.775 975.993 607.198 977.114 604.47 978.02L589.332 983.321L563.467 991.819L543.941 997.335C538.334 998.671 532.564 999.632 527.025 1001.21Z"/>
	<path fill="#FC8500" d="M409.999 976.508L410.018 956.942L497.025 986.253L497.06 1001.29L409.999 976.508Z"/>
	<path fill="#FEFEFE" d="M347.905 173.992C372.556 170.087 394.817 159.437 418.511 152.205C436.354 146.759 455.183 142.809 473.867 142.095C518.69 140.382 564.215 156.653 600.224 182.824C619.849 197.088 638.928 214.62 652.782 234.666C674.91 234.829 695.334 244.692 710.655 260.401C742.691 293.248 755.787 341.565 755.053 386.427L753.848 410.974C752.461 409.064 753.121 403.447 753.109 400.945C753.066 391.536 753.427 381.928 752.859 372.543C752.383 364.662 751.064 356.597 749.459 348.875C744.859 326.745 736.597 306.118 724.52 287.031C713.95 270.324 700.315 255.157 681.768 247.33C675.998 244.894 670.081 243.069 663.875 242.137L654.398 241.161C653.537 241.115 651.246 241.286 650.528 240.971C649.795 240.65 649.047 239.431 648.527 238.791L643.022 232.113C637.465 225.528 631.604 218.765 625.519 212.667C613.721 200.843 600.88 190.234 586.892 181.097C545.676 154.175 497.023 142.711 448.279 150.602C438.515 152.182 428.737 155.001 419.236 157.719C403.037 162.354 387.502 170.484 371.02 173.861C365.307 175.032 359.751 175.554 353.928 175.235C351.783 175.117 349.759 175.208 347.905 173.992Z"/>
	<path fill="#FEB702" d="M527.025 1001.21C532.564 999.632 538.334 998.671 543.941 997.335L563.467 991.819L589.332 983.321L604.47 978.02C607.198 977.114 609.775 975.993 612.674 975.773L613.106 1024L527.017 1024L527.025 1001.21Z"/>
	<path fill="#FEB702" d="M409.999 976.508L497.06 1001.29L497.276 1024L409.817 1024L409.999 976.508Z"/>
	<path fill="#209EBB" d="M457.034 761.683C457.869 758.508 458.126 754.994 458.514 751.727C459.749 741.313 459.64 731.18 459.436 720.708C472.821 723.816 485.851 726.354 499.589 727.267C521.261 728.708 543.091 725.923 564.327 721.773C563.954 734.675 563.983 748.539 566.558 761.233C550.187 765.388 532.8 769.09 515.898 769.925C507.294 770.35 499.187 769.736 490.675 768.796L457.034 761.683Z"/>
	<path fill="#FEB702" d="M457.034 761.683L490.675 768.796C499.187 769.736 507.294 770.35 515.898 769.925C532.8 769.09 550.187 765.388 566.558 761.233L569.591 774.172L569.768 774.661C570.45 776.496 571.307 778.099 572.303 779.78L582.959 782.41C577.93 798.135 566.205 810.367 551.663 817.933C531.093 828.636 507.408 830.94 485.241 823.827C469.643 818.822 454.851 808.905 447.17 794.088L442.772 783.998C447.367 781.964 450.393 780.83 453.287 776.532C452.893 774.97 456.434 763.886 457.034 761.683Z"/>
	<path fill="#A1A194" d="M457.034 761.683L490.675 768.796C499.187 769.736 507.294 770.35 515.898 769.925C532.8 769.09 550.187 765.388 566.558 761.233L569.591 774.172C557.262 779.264 544.921 783.805 531.769 786.301C506.642 791.07 479.014 787.65 455.5 777.6L453.287 776.532C452.893 774.97 456.434 763.886 457.034 761.683Z"/>
	<path fill="#FC8500" d="M328.191 807.586C331.56 817.123 335.332 826.385 340.518 835.095C345.704 843.806 352.082 851.725 358.598 859.459C382.772 888.154 413.67 912.108 446.147 930.727L473.403 945.219C476.716 946.895 482.669 948.938 485.409 951.29C486.544 952.265 487.529 955.946 488.063 957.352C489.435 960.969 494.347 972.836 493.665 975.803C447.679 959.205 401.128 944.175 359.094 918.618C343.563 909.176 328.708 898.638 315.874 885.686C308.827 878.573 301.536 870.68 297.202 861.545L296.632 860.214L296.751 859.792L296.94 859.085C297.895 855.671 297.778 852.686 298.277 849.264C299.505 840.831 302.831 833.508 307.592 826.511C311.821 820.293 317.848 814.565 324.068 810.328L328.191 807.586Z"/>
	<path fill="#FC8500" d="M695.219 808.02C707.277 812.634 719.379 822.833 724.765 834.614C726.472 838.348 726.922 843.225 726.638 847.309C726.382 850.991 724.02 859.405 725.697 862.455C716.095 881.472 700.31 895.171 683.082 907.167C636.504 939.597 581.852 956.071 529.58 976.63L534.532 960.831C535.088 958.936 535.926 954.627 537.125 953.104C538.755 951.034 544.615 948.772 547 947.533L570.211 935.337C593.743 922.55 615.771 906.671 635.702 888.824C654.834 871.692 672.464 852.647 685.169 830.183C689.179 823.094 692.267 815.593 695.219 808.02Z"/>
	<path fill="#209EBB" d="M324.885 578.739L329.407 568.981L338.159 589.44C357.346 625.765 387.45 654.731 424.642 672.25C433.607 676.473 443.089 679.636 452.557 682.525C504.962 698.513 563.904 692.722 612.094 666.807C654.232 644.147 686.381 605.697 700.081 559.681L701.131 566.911L700.907 567.658C698.616 575.45 699.598 583.575 697.05 591.492C682.795 635.791 650.752 670.081 610.529 692.372C578.052 710.371 538.381 719.352 501.25 716.846C486.065 715.821 471.181 712.796 456.588 708.566C409.39 694.884 364.309 665.159 340.271 621.404C332.697 607.618 328.418 593.946 324.885 578.739Z"/>
	<path fill="#FC8500" d="M422.86 707.881L448.458 717.689C448.666 734.531 448.66 750.465 445.14 767.053C430.979 772.882 418.139 779.813 404.948 787.557C403.069 781.376 401.213 775.213 400.085 768.84C399.34 764.631 399.342 759.203 397.991 755.25C397.526 753.89 396.014 752.653 394.75 752.059C393.964 751.69 392.988 751.279 392.163 751.635C390.622 752.301 389.249 753.558 387.93 754.586C389.789 767.462 392.213 779.934 396.25 792.336C407.785 827.771 428.442 859.767 449.94 889.88C461.411 905.948 473.792 921.598 481.359 940.008C437.901 918.012 395.864 890.492 364.189 852.992C353.306 840.106 343.53 826.149 338.254 809.95L335.509 799.07C336.989 795.064 336.864 790.246 337.635 786.049C339.237 777.325 343.043 768.64 347.48 761C362.378 735.343 394.713 715.472 422.86 707.881Z"/>
	<path fill="#FC8500" d="M688.374 795.665C687.859 799.149 686.907 802.727 685.775 806.059C668.66 856.42 621.865 893.57 578.14 920.661C566.321 927.984 554.235 935.115 541.737 941.232C545.988 930.603 552.143 920.188 558.824 910.898L573.091 892.003C582.307 879.062 592.054 865.839 600.355 852.302C614.291 829.578 627.1 803.501 633.262 777.488C634.861 770.736 636.349 763.968 636.475 757C635.728 755.394 635.04 754.462 633.755 753.25C632.201 752.77 631.285 752.759 629.75 753.474C628.303 754.148 627.795 755.313 627.343 756.75C625.993 761.04 625.992 765.869 625.152 770.296C624.045 776.136 622.192 781.895 620.409 787.56L602.748 778.663C598.001 776.237 593.049 773.371 587.95 771.757C585.276 770.911 582.033 770.762 579.243 770.398C577.622 765.546 577.077 760.561 576.466 755.505C574.98 743.196 574.688 731.126 575.428 718.744L607.343 706.72C612.822 710.418 619.371 712.365 625.214 715.468C630.728 718.398 635.714 721.844 640.901 725.289C652.71 733.133 664.831 742.192 673.56 753.5C678.659 760.106 681.932 766.807 684.785 774.578L685.782 778.406C686.717 782.179 686.894 786.372 687.093 790.254C687.142 791.199 686.988 794.095 687.315 794.767C687.517 795.183 688.021 795.366 688.374 795.665Z"/>
	<path fill="#246482" d="M286.547 866.367C290.572 872.871 294.053 879.622 298.684 885.742C315.118 907.461 340.256 923.485 363.781 936.535C377.281 944.024 392.006 949.923 406.423 955.394C406.574 955.452 406.791 955.429 406.875 955.566C407.932 957.281 406.503 1017.86 406.675 1024L173.69 1024C176.877 1016.74 177.064 1007.93 180.821 1000.81C181.833 1000.32 181.909 999.824 182.427 998.837L197.006 970C213.766 939.545 234.49 911.692 260.146 888.147C268.547 880.436 277.742 873.603 286.547 866.367Z"/>
	<path fill="#246482" d="M615.453 1024L615.481 955.724C625.189 952.812 634.198 948.714 643.409 944.543C678.217 928.779 718.216 905.699 736.996 871L741.427 860.735C745.406 861.9 750.938 866.688 754.345 869.163C782.113 889.34 805.185 915.955 821.672 946.047C831.657 964.271 839.03 983.53 844.339 1003.6L848.771 1024L615.453 1024Z"/>
	<path fill="#209EBB" d="M347.905 173.992C349.759 175.208 351.783 175.117 353.928 175.235C359.751 175.554 365.307 175.032 371.02 173.861C387.502 170.484 403.037 162.354 419.236 157.719C428.737 155.001 438.515 152.182 448.279 150.602C497.023 142.711 545.676 154.175 586.892 181.097C600.88 190.234 613.721 200.843 625.519 212.667C631.604 218.765 637.465 225.528 643.022 232.113L648.527 238.791C649.047 239.431 649.795 240.65 650.528 240.971C651.246 241.286 653.537 241.115 654.398 241.161L663.875 242.137C670.081 243.069 675.998 244.894 681.768 247.33C700.315 255.157 713.95 270.324 724.52 287.031C736.597 306.118 744.859 326.745 749.459 348.875C751.064 356.597 752.383 364.662 752.859 372.543C753.427 381.928 753.066 391.536 753.109 400.945C753.121 403.447 752.461 409.064 753.848 410.974C754.027 412.354 753.465 414.367 753.347 415.841C752.585 425.311 750.418 434.503 748.406 443.766L741.74 474.266L734.946 476.268C739.955 445.695 744.037 415.973 740.402 384.958C735.857 346.176 721.543 303.394 683.387 286.263C673.782 281.951 663.543 279.291 653.75 275.481C645.685 272.343 637.91 268.283 630.375 264.05C611.327 253.349 592.65 241.353 575 228.474L531.83 194.879C533.858 204.465 538.349 212.913 543.349 221.248C555.48 241.472 571.59 259.771 589.949 274.581L608.359 288.56C611.022 290.464 613.96 291.851 616.415 294.045L583.367 286.185C526.135 269.957 471.607 241.918 433.736 194.848C437.532 211.005 444.383 226.706 453.515 240.573C469.923 265.489 492.426 286.236 517.866 301.651C532.385 310.449 546.839 317.239 563.538 320.733C559.422 321.289 554.9 320.898 550.757 320.688C542.414 320.266 534.086 319.441 525.834 318.139C487.631 312.113 449.317 300.357 415.366 281.663C391.417 268.476 371.711 253.677 355.56 231.503C353.889 258.152 363.265 284.491 381.521 304.138C387.565 310.642 394.618 315.996 400.743 322.377C405.554 327.389 409.899 333.811 413.885 339.518C403.922 336.222 393.675 333.121 384.126 328.759C368.406 321.578 354.07 310.886 343.119 297.489C339.247 292.752 336.17 287.457 332.564 282.527C334.828 289.981 337.26 296.165 341.554 302.73L325.448 317.25C292.798 350.876 285.999 400.004 285.977 444.869L287.002 477.479C279.556 463.893 274.388 446.667 272.022 431.418C269.931 417.943 269.346 403.602 268.41 389.968C246.743 391.208 223.339 387.867 203.754 378.247C209.497 377.581 215.102 376.054 220.609 374.333C254.538 363.726 276.318 333.162 292.16 303.097C289.885 301.122 286.286 300.068 283.5 298.983C279.819 297.55 276.295 295.945 272.81 294.085C251.711 282.821 237.893 266.77 223.561 248.081C231.253 246.922 239.096 247.495 246.861 246.161C279.871 240.49 309.455 223.563 335.725 203.479C329.471 197.294 323.129 190.484 319.033 182.637C316.336 177.47 314.705 171.994 313.042 166.434C317.112 168.631 321.276 170.798 325.736 172.087C332.972 174.178 340.449 174.157 347.905 173.992Z"/>
	<path fill="#FEB702" d="M586.938 363.688C596.63 360.471 606.415 356.451 615.436 351.658C618.349 350.11 621.26 348.555 624.02 346.744C626.407 345.178 630.12 342.129 632.751 341.423C672.185 388.674 701.203 447.921 696.333 511C696.022 515.017 693.571 523.094 696.409 526.459C697.707 527.998 699.178 528.919 701.218 528.999C703.271 529.079 704.945 528.453 706.362 526.95C709.301 523.833 710.547 516.671 712.164 512.597C716.898 500.667 725.096 492.705 737.113 488.064C740.119 486.903 743.535 485.68 746.75 485.464C758.342 484.685 768.536 489.462 776.883 497.245C787.449 507.098 793.526 522.455 793.983 536.75C794.481 552.319 789.02 566.85 778.259 578.157C768.209 588.719 752.664 597.456 737.829 597.668C727.94 597.81 718.147 594.314 711.042 587.241C705.385 581.61 703.033 574.455 701.131 566.911L700.081 559.681C686.381 605.697 654.232 644.147 612.094 666.807C563.904 692.722 504.962 698.513 452.557 682.525C443.089 679.636 433.607 676.473 424.642 672.25C387.45 654.731 357.346 625.765 338.159 589.44L329.407 568.981L324.885 578.739C321.992 582.819 318.597 586.491 314.763 589.711C306.576 596.586 295.083 600.574 284.42 599.43C269.111 597.788 254.868 586.606 245.615 574.845C235.613 562.133 229.26 544.739 231.303 528.433L231.428 527.5C232.35 520.305 234.487 513.813 237.969 507.453C243.097 498.09 251.748 489.097 262.341 486.231C272.134 483.582 281.91 485.918 290.527 490.992C304.718 499.347 311.368 514.997 315.41 530.241C332.875 519.04 324.989 501.405 324.883 484.776C324.807 472.811 326.265 461.023 329.511 449.5C337.432 421.38 355.851 396.125 378.947 378.471C385.945 373.122 393.569 368.786 401.229 364.481C407.991 359.65 416.755 356.729 424.623 354.186C426.188 353.68 429.103 352.452 430.694 352.455C431.305 352.456 432.656 353.188 433.255 353.442L442.275 357.639L458.053 363.646C488.669 374.145 523.554 376.344 555.406 371.009C566.087 369.22 576.457 366.35 586.938 363.688Z"/>
	<path fill="#013148" d="M724.275 542.04L725.23 539.25C730.226 528.318 740.098 515.972 751.719 511.75C756.559 509.992 761.528 510.23 766.156 512.602C771.042 515.105 773.203 520.144 774.708 525.089C771.125 520.48 768.529 517.035 762.375 516.208C755.762 515.318 748.863 518.107 743.725 522.175C739.615 525.43 735.629 529.222 732.145 533.138C729.51 536.099 727.223 539.376 724.275 542.04Z"/>
	<defs>
		<linearGradient id="gradient_1" gradientUnits="userSpaceOnUse" x1="275.04858" y1="542.03723" x2="273.58524" y2="514.59552">
			<stop offset="0" stop-color="#113841"/>
			<stop offset="1" stop-color="#002F48"/>
		</linearGradient>
	</defs>
	<path fill="url(#gradient_1)" d="M251.51 527.205C254.185 521.649 257.768 516.895 263.876 514.918C268.036 513.571 273.318 513.852 277.25 515.789L278.09 516.194C286.642 520.454 292.341 529.829 295.177 538.663C296.288 542.124 297.02 545.532 297.09 549.179L291.434 536.995C287.788 530.407 281.556 523.494 273.959 521.667C265.994 519.751 258.101 523.032 251.51 527.205Z"/>
	<path fill="#013148" d="M509.028 541.095C514.96 541.102 520.599 541.276 525.535 545.096C529.183 547.918 532.896 553.063 533.338 557.75C533.451 558.947 533.082 559.916 532.369 560.861C531.268 561.53 530.524 561.728 529.25 561.892C527.475 559.959 526.988 557.604 525.84 555.307C523.794 551.215 520.679 549.201 516.476 547.833L515.659 547.572L511.787 547.49C507.12 547.534 500.944 550.286 498.75 554.586C497.523 556.989 497.181 559.603 495.25 561.597C494.025 561.966 493.959 561.959 492.75 561.541C492.085 560.802 491.412 560.288 491.165 559.3C490.47 556.511 492.447 552.301 493.956 550.052C497.401 544.92 503.178 542.31 509.028 541.095Z"/>
	<path fill="#013148" d="M463.989 610.75C464.576 610.686 465.177 610.417 465.75 610.558C467.795 611.061 471.179 614.75 472.926 616.112C476.307 618.746 480.448 621.089 484.35 622.835C492.872 626.646 503.158 628.864 512.513 628.954C524.344 629.067 536.548 625.595 546.72 619.594C550.969 617.088 555.907 610.648 560.75 610.454C562.106 611.334 562.227 611.533 562.927 613C562.616 614.599 561.81 615.41 560.773 616.586C554.401 622.226 548.145 626.707 540.264 630.025C522.969 637.304 502.757 637.6 485.35 630.392C478.468 627.542 464.677 621.135 461.607 613.75C462.08 612.185 462.748 611.688 463.989 610.75Z"/>
	<path fill="#013148" d="M414.888 403.179C421.627 402.247 429.967 402.853 436.188 405.806C440.298 407.757 443.905 411.153 445.42 415.5C446.585 418.843 446.839 422.582 445.13 425.823C443.764 428.416 440.586 430.793 437.704 431.343C435.373 431.789 432.496 431.513 430.107 431.516L413.5 431.513C405.24 431.71 396.816 433.632 388.873 435.776C382.2 437.895 376.687 441.459 370.271 444.019L366.895 442.144C365.095 441.005 363.857 439.172 363.442 437.078C362.733 433.508 364.267 430.143 366.334 427.34C377.5 412.203 397.08 405.745 414.888 403.179Z"/>
	<path fill="#013148" d="M598.739 403.202C610.1 402.564 620.698 404.759 631.153 409.157C641.46 413.491 653.919 420.98 658.022 432.105C658.727 434.015 658.668 435.822 657.793 437.664C656.831 439.69 655.099 441.676 652.875 442.309C648.598 443.526 642.387 439.538 638.633 437.715C629.753 434.011 620.496 432.152 610.922 431.342C607.12 431.02 603.203 430.868 599.388 431.031C593.647 431.277 583.395 433.056 578.475 429.662C576.288 428.153 574.927 425.309 574.51 422.75C573.823 418.544 575.229 414.228 577.914 410.978C582.874 404.976 591.505 403.925 598.739 403.202Z"/>
	<path fill="#FC8500" d="M382.39 561.595C387.255 561.334 391.976 561.926 396.413 564.05C402.795 567.104 407.985 573.392 410.114 580.119C412.083 586.342 411.179 594.44 407.987 600.137C403.723 607.745 397.281 610.981 389.15 613.075C383.942 614.106 377.506 612.81 373 610.065C366.87 606.33 362.095 600.305 360.504 593.241L360.346 592.5L360.207 591.907C358.796 585.42 360.989 578.117 364.451 572.66C368.69 565.978 375.028 563.273 382.39 561.595Z"/>
	<path fill="#209EBB" d="M251.51 527.205C258.101 523.032 265.994 519.751 273.959 521.667C281.556 523.494 287.788 530.407 291.434 536.995L297.09 549.179C296.634 553.015 296.19 557.165 294.813 560.795C292.426 567.091 287.774 572.301 281.484 574.896C276.245 577.058 270.247 577.544 265 575.128C257.547 571.695 252.637 564.088 250.073 556.531C246.904 547.19 247.195 536.091 251.51 527.205Z"/>
	<path fill="#FC8500" d="M637.289 561.116C642.371 560.326 648.631 561.117 653.179 563.472C660.065 567.04 664.743 573.402 666.922 580.756C668.954 587.614 667.448 595.153 663.957 601.293C659.924 608.387 653.567 611.474 645.963 613.404C638.456 614.466 631.737 613.589 625.331 609.32C619.378 605.352 615.37 597.732 614.132 590.863C612.929 584.186 614.967 577.265 618.856 571.821C623.466 565.368 629.68 562.441 637.289 561.116Z"/>
	<path fill="#209EBB" d="M724.275 542.04C727.223 539.376 729.51 536.099 732.145 533.138C735.629 529.222 739.615 525.43 743.725 522.175C748.863 518.107 755.762 515.318 762.375 516.208C768.529 517.035 771.125 520.48 774.708 525.089C775.632 527.535 776.199 529.645 776.563 532.25L776.687 533.088C778.019 542.538 774.553 552.92 768.75 560.379C763.317 567.362 754.003 574.063 745 575.035C740.492 575.522 736.542 574.765 733.033 571.75C726.791 566.388 724.409 554.708 724.068 546.874L724.239 542.702L724.275 542.04Z"/>
	<path fill="#A1A194" d="M401.229 364.481C407.991 359.65 416.755 356.729 424.623 354.186C426.188 353.68 429.103 352.452 430.694 352.455C431.305 352.456 432.656 353.188 433.255 353.442L442.275 357.639L458.053 363.646C488.669 374.145 523.554 376.344 555.406 371.009C566.087 369.22 576.457 366.35 586.938 363.688C582.731 368.799 574.664 371.606 568.661 373.945C548.369 381.854 526.573 387.515 504.871 389.616C474.451 392.561 441.286 387.348 414.231 372.671C409.909 370.326 405.492 368.04 401.699 364.88L401.229 364.481Z"/>
	<path fill="#013148" d="M602.322 465.612C608.241 465.085 615.085 465.905 620.394 468.671C628.555 472.923 634.613 481.946 637.108 490.628C640.593 502.754 638.944 517.325 632.567 528.278C628.315 535.581 620.593 541.124 612.522 543.379C606.891 544.644 600.846 543.849 595.702 541.269C586.929 536.867 581.78 529.882 578.783 520.653C574.744 508.216 575.17 494.758 581.217 483.029C586.033 473.689 592.418 468.766 602.322 465.612Z"/>
	<path fill="#FEFEFE" d="M592.438 480.497C594.329 480.449 596.768 480.198 598.579 480.752C600.664 481.389 602.806 483.781 603.839 485.618C605.769 489.049 606.075 493.246 604.91 497C603.626 501.137 600.976 503.051 597.338 504.973C596.364 505.12 595.374 505.301 594.384 505.223C591.673 505.012 589.095 503.715 587.47 501.512C585.143 498.36 583.89 493.988 584.731 490.12C585.804 485.18 588.401 483.121 592.438 480.497Z"/>
	<path fill="#013148" d="M414.404 465.563C419.35 464.905 424.788 465.401 429.222 467.77C438.6 472.781 444.469 481.61 447.365 491.616C450.9 503.829 449.422 519.031 443.128 530.113C438.258 538.688 430.769 543.908 421.351 546.496C415.404 546.613 410.578 545.739 405.29 543.019C396.971 538.739 391.808 529.59 389.064 520.954C385.093 508.459 385.904 494.658 391.983 482.96C397.156 473.002 404.085 468.879 414.404 465.563Z"/>
	<path fill="#FEFEFE" d="M406.546 479.75C408.175 479.301 409.889 479.711 411.402 480.405C414.383 481.772 416.689 485.039 417.741 488.066C418.975 491.616 418.43 495.559 416.813 498.906C415.059 502.534 412.346 503.746 408.69 504.988L403.134 504.067C401.014 502.42 399.409 500.988 398.338 498.478C396.656 494.535 396.632 490.546 398.409 486.628C400.102 482.895 402.857 481.119 406.546 479.75Z"/>
</svg>
