<svg width="30.000000" height="29.000000" viewBox="0 0 30 29" fill="none" xmlns="http://www.w3.org/2000/svg" xmlns:xlink="http://www.w3.org/1999/xlink">
	<desc>
			Created with Pixso.
	</desc>
	<defs/>
	<path id="path" d="M15 0C14.5 0 14.01 0.02 13.52 0.06C13.04 0.11 12.55 0.18 12.07 0.27C11.59 0.37 11.11 0.48 10.64 0.62C10.17 0.76 9.71 0.92 9.25 1.1C8.8 1.28 8.36 1.48 7.92 1.71C7.49 1.93 7.07 2.17 6.66 2.44C6.25 2.7 5.86 2.98 5.48 3.29C5.1 3.59 4.74 3.91 4.39 4.24C4.04 4.58 3.71 4.93 3.4 5.3C3.09 5.66 2.8 6.04 2.52 6.44C2.25 6.83 2 7.24 1.77 7.66C1.53 8.08 1.32 8.51 1.14 8.95C0.95 9.38 0.78 9.83 0.64 10.29C0.5 10.74 0.38 11.2 0.28 11.67C0.19 12.13 0.12 12.6 0.07 13.07C0.02 13.55 0 14.02 0 14.5C0 14.97 0.02 15.44 0.07 15.92C0.12 16.39 0.19 16.86 0.28 17.32C0.38 17.79 0.5 18.25 0.64 18.7C0.78 19.16 0.95 19.61 1.14 20.04C1.32 20.48 1.53 20.91 1.77 21.33C2 21.75 2.25 22.16 2.52 22.55C2.8 22.95 3.09 23.33 3.4 23.69C3.71 24.06 4.04 24.41 4.39 24.75C4.74 25.08 5.1 25.4 5.48 25.7C5.86 26.01 6.25 26.29 6.66 26.55C7.07 26.82 7.49 27.06 7.92 27.28C8.36 27.51 8.8 27.71 9.25 27.89C9.71 28.07 10.17 28.23 10.64 28.37C11.11 28.51 11.59 28.62 12.07 28.72C12.55 28.81 13.04 28.88 13.52 28.93C14.01 28.97 14.5 29 15 29C15.49 29 15.98 28.97 16.47 28.93C16.95 28.88 17.44 28.81 17.92 28.72C18.4 28.62 18.88 28.51 19.35 28.37C19.82 28.23 20.28 28.07 20.74 27.89C21.19 27.71 21.63 27.51 22.07 27.28C22.5 27.06 22.92 26.82 23.33 26.55C23.74 26.29 24.13 26.01 24.51 25.7C24.89 25.4 25.25 25.08 25.6 24.75C25.95 24.41 26.28 24.06 26.59 23.69C26.9 23.33 27.19 22.95 27.47 22.55C27.74 22.16 27.99 21.75 28.22 21.33C28.46 20.91 28.67 20.48 28.85 20.04C29.04 19.61 29.21 19.16 29.35 18.7C29.49 18.25 29.61 17.79 29.71 17.32C29.8 16.86 29.87 16.39 29.92 15.92C29.97 15.44 30 14.97 30 14.5C29.99 14.02 29.97 13.55 29.92 13.07C29.87 12.6 29.8 12.13 29.7 11.67C29.61 11.2 29.49 10.74 29.35 10.29C29.2 9.83 29.04 9.39 28.85 8.95C28.66 8.51 28.45 8.08 28.22 7.66C27.99 7.24 27.74 6.84 27.46 6.44C27.19 6.05 26.9 5.67 26.59 5.3C26.27 4.93 25.94 4.58 25.6 4.25C25.25 3.91 24.89 3.59 24.51 3.29C24.13 2.99 23.73 2.71 23.32 2.44C22.92 2.18 22.5 1.94 22.06 1.71C21.63 1.49 21.19 1.28 20.73 1.1C20.28 0.92 19.82 0.76 19.35 0.62C18.88 0.48 18.4 0.37 17.92 0.28C17.44 0.18 16.95 0.11 16.46 0.07C15.98 0.02 15.49 0 15 0ZM7.22 24.18C7.43 23.87 7.65 23.57 7.9 23.28C8.15 23 8.41 22.73 8.69 22.47C8.98 22.22 9.27 21.98 9.59 21.76C9.9 21.54 10.22 21.34 10.56 21.17C10.9 20.99 11.25 20.83 11.61 20.69C11.97 20.55 12.33 20.44 12.71 20.35C13.08 20.25 13.46 20.19 13.84 20.14C14.22 20.09 14.61 20.07 15 20.07C15.38 20.07 15.77 20.09 16.15 20.14C16.53 20.19 16.91 20.25 17.28 20.35C17.66 20.44 18.02 20.55 18.38 20.69C18.74 20.83 19.09 20.99 19.43 21.17C19.77 21.34 20.09 21.54 20.4 21.76C20.72 21.98 21.01 22.22 21.3 22.47C21.58 22.73 21.84 23 22.09 23.28C22.34 23.57 22.56 23.87 22.77 24.18C22.22 24.6 21.64 24.97 21.02 25.29C20.41 25.61 19.77 25.88 19.11 26.1C18.44 26.32 17.77 26.49 17.08 26.6C16.39 26.71 15.69 26.76 15 26.76C14.3 26.76 13.6 26.71 12.91 26.6C12.22 26.49 11.55 26.32 10.88 26.1C10.22 25.88 9.58 25.61 8.97 25.29C8.35 24.97 7.77 24.6 7.22 24.18ZM10.38 13.38C10.38 13.09 10.41 12.8 10.47 12.51C10.53 12.22 10.61 11.94 10.73 11.67C10.85 11.4 10.99 11.14 11.16 10.9C11.33 10.66 11.52 10.43 11.73 10.22C11.95 10.02 12.18 9.83 12.43 9.67C12.68 9.51 12.95 9.37 13.23 9.26C13.51 9.15 13.8 9.06 14.09 9C14.39 8.95 14.69 8.92 15 8.92C15.3 8.92 15.6 8.95 15.9 9C16.19 9.06 16.48 9.15 16.76 9.26C17.04 9.37 17.31 9.51 17.56 9.67C17.81 9.83 18.04 10.02 18.26 10.22C18.47 10.43 18.66 10.66 18.83 10.9C19 11.14 19.14 11.4 19.26 11.67C19.38 11.94 19.46 12.22 19.52 12.51C19.58 12.8 19.61 13.09 19.61 13.38C19.61 13.67 19.58 13.96 19.52 14.25C19.46 14.54 19.38 14.82 19.26 15.09C19.14 15.36 19 15.61 18.83 15.86C18.66 16.1 18.47 16.33 18.26 16.53C18.04 16.74 17.81 16.93 17.56 17.09C17.31 17.25 17.04 17.39 16.76 17.5C16.48 17.61 16.19 17.7 15.9 17.76C15.6 17.81 15.3 17.84 15 17.84C14.69 17.84 14.39 17.81 14.09 17.76C13.8 17.7 13.51 17.61 13.23 17.5C12.95 17.39 12.68 17.25 12.43 17.09C12.18 16.93 11.95 16.74 11.73 16.53C11.52 16.33 11.33 16.1 11.16 15.86C10.99 15.61 10.85 15.36 10.73 15.09C10.61 14.82 10.53 14.54 10.47 14.25C10.41 13.96 10.38 13.67 10.38 13.38ZM24.48 22.64C23.84 21.74 23.07 20.95 22.19 20.26C21.3 19.58 20.33 19.04 19.28 18.63C19.65 18.34 19.99 18.03 20.3 17.67C20.61 17.32 20.87 16.94 21.1 16.53C21.32 16.12 21.5 15.7 21.64 15.25C21.77 14.81 21.86 14.36 21.9 13.9C21.93 13.44 21.92 12.98 21.86 12.52C21.8 12.06 21.69 11.62 21.54 11.18C21.38 10.75 21.18 10.33 20.93 9.93C20.69 9.54 20.4 9.17 20.08 8.83C19.76 8.49 19.4 8.19 19.01 7.92C18.62 7.65 18.21 7.43 17.77 7.24C17.33 7.06 16.88 6.92 16.41 6.82C15.95 6.73 15.47 6.68 15 6.68C14.52 6.68 14.05 6.73 13.58 6.82C13.11 6.92 12.66 7.06 12.22 7.24C11.78 7.43 11.37 7.65 10.98 7.92C10.59 8.19 10.23 8.49 9.91 8.83C9.59 9.17 9.3 9.54 9.06 9.93C8.81 10.33 8.61 10.75 8.45 11.18C8.3 11.62 8.19 12.06 8.13 12.52C8.07 12.98 8.06 13.44 8.09 13.9C8.13 14.36 8.22 14.81 8.35 15.25C8.49 15.7 8.67 16.12 8.89 16.53C9.12 16.94 9.38 17.32 9.69 17.67C10 18.03 10.34 18.34 10.71 18.63C9.66 19.04 8.69 19.58 7.8 20.26C6.92 20.95 6.15 21.74 5.51 22.64C5.24 22.35 4.99 22.04 4.75 21.73C4.51 21.41 4.29 21.08 4.08 20.75C3.87 20.41 3.68 20.06 3.51 19.71C3.34 19.35 3.18 18.99 3.05 18.62C2.91 18.25 2.79 17.88 2.69 17.5C2.59 17.12 2.51 16.74 2.45 16.35C2.39 15.96 2.35 15.57 2.32 15.18C2.3 14.79 2.3 14.4 2.31 14.01C2.33 13.62 2.36 13.23 2.42 12.84C2.47 12.45 2.55 12.06 2.64 11.68C2.73 11.3 2.84 10.92 2.97 10.55C3.1 10.18 3.25 9.82 3.42 9.46C3.58 9.1 3.77 8.75 3.97 8.41C4.17 8.07 4.38 7.74 4.62 7.42C4.85 7.1 5.1 6.79 5.36 6.5C5.63 6.2 5.9 5.91 6.2 5.64C6.49 5.37 6.79 5.11 7.11 4.87C7.43 4.63 7.76 4.4 8.1 4.19C8.44 3.97 8.79 3.78 9.15 3.6C9.51 3.41 9.88 3.25 10.25 3.11C10.63 2.96 11.01 2.83 11.4 2.72C11.79 2.61 12.18 2.52 12.58 2.44C12.98 2.37 13.38 2.31 13.78 2.27C14.19 2.23 14.59 2.22 15 2.22C15.4 2.22 15.8 2.23 16.21 2.27C16.61 2.31 17.01 2.37 17.41 2.44C17.81 2.52 18.2 2.61 18.59 2.72C18.98 2.83 19.36 2.96 19.74 3.11C20.11 3.25 20.48 3.41 20.84 3.6C21.2 3.78 21.55 3.97 21.89 4.19C22.23 4.4 22.56 4.63 22.88 4.87C23.2 5.11 23.5 5.37 23.79 5.64C24.09 5.91 24.36 6.2 24.63 6.5C24.89 6.79 25.14 7.1 25.37 7.42C25.61 7.74 25.82 8.07 26.02 8.41C26.22 8.75 26.41 9.1 26.57 9.46C26.74 9.82 26.89 10.18 27.02 10.55C27.15 10.92 27.26 11.3 27.35 11.68C27.44 12.06 27.52 12.45 27.57 12.84C27.63 13.23 27.66 13.62 27.68 14.01C27.69 14.4 27.69 14.79 27.67 15.18C27.64 15.57 27.6 15.96 27.54 16.35C27.48 16.74 27.4 17.12 27.3 17.5C27.2 17.88 27.08 18.25 26.94 18.62C26.81 18.99 26.65 19.35 26.48 19.71C26.31 20.06 26.12 20.41 25.91 20.75C25.7 21.08 25.48 21.41 25.24 21.73C25 22.04 24.75 22.35 24.48 22.64Z" fill="#F29A2E" fill-opacity="1.000000" fill-rule="nonzero"/>
</svg>
