<svg width="30.000000" height="29.000000" viewBox="0 0 30 29" fill="none" xmlns="http://www.w3.org/2000/svg" xmlns:xlink="http://www.w3.org/1999/xlink">
	<desc>
			Created with Pixso.
	</desc>
	<defs/>
	<path id="path" d="M15 0C14.5088 0 14.0186 0.0231934 13.5298 0.0698242C13.0408 0.116455 12.5554 0.186035 12.0737 0.278564C11.5918 0.371338 11.1157 0.486572 10.6458 0.624268C10.1755 0.762207 9.71362 0.922119 9.25977 1.10376C8.80591 1.2854 8.3623 1.48828 7.92896 1.71216C7.49585 1.93604 7.07495 2.17993 6.6665 2.4436C6.25806 2.70752 5.86377 2.98999 5.48413 3.29126C5.10425 3.59253 4.74072 3.91113 4.39331 4.24707C4.0459 4.58276 3.71655 4.93408 3.40479 5.30127C3.09326 5.66846 2.80078 6.04932 2.52808 6.44434C2.25513 6.83911 2.00269 7.24585 1.77124 7.66479C1.53955 8.0835 1.32983 8.51245 1.14185 8.95117C0.953857 9.38989 0.788574 9.83643 0.645996 10.2908C0.503174 10.7454 0.384033 11.2053 0.28833 11.6711C0.192383 12.137 0.120361 12.6062 0.0722656 13.0789C0.0241699 13.5513 0 14.0251 0 14.5C0 14.9749 0.0241699 15.4487 0.0722656 15.9211C0.120361 16.3938 0.192383 16.863 0.28833 17.3289C0.384033 17.7947 0.503174 18.2546 0.645996 18.7092C0.788574 19.1636 0.953857 19.6101 1.14185 20.0488C1.32983 20.4875 1.53955 20.9165 1.77124 21.3352C2.00269 21.7542 2.25513 22.1609 2.52808 22.5557C2.80078 22.9507 3.09326 23.3315 3.40479 23.6987C3.71655 24.0659 4.0459 24.4172 4.39331 24.7529C4.74072 25.0889 5.10425 25.4075 5.48413 25.7087C5.86377 26.01 6.25806 26.2925 6.6665 26.5564C7.07495 26.8201 7.49585 27.064 7.92896 27.2878C8.3623 27.5117 8.80591 27.7146 9.25977 27.8962C9.71362 28.0779 10.1755 28.2378 10.6458 28.3757C11.1157 28.5134 11.5918 28.6287 12.0737 28.7214C12.5554 28.814 13.0408 28.8835 13.5298 28.9302C14.0186 28.9768 14.5088 29 15 29C15.4912 29 15.9814 28.9768 16.4702 28.9302C16.9592 28.8835 17.4446 28.814 17.9263 28.7214C18.4082 28.6287 18.884 28.5134 19.3542 28.3757C19.8245 28.2378 20.2864 28.0779 20.7402 27.8962C21.1941 27.7146 21.6377 27.5117 22.071 27.2878C22.5042 27.064 22.925 26.8201 23.3335 26.5564C23.7419 26.2925 24.1362 26.01 24.5159 25.7087C24.8958 25.4075 25.2593 25.0889 25.6067 24.7529C25.9539 24.4172 26.2834 24.0659 26.5952 23.6987C26.9067 23.3315 27.1992 22.9507 27.4719 22.5557C27.7449 22.1609 27.9973 21.7542 28.2288 21.3352C28.4604 20.9165 28.6702 20.4875 28.8582 20.0488C29.0461 19.6101 29.2114 19.1636 29.354 18.7092C29.4968 18.2546 29.616 17.7947 29.7117 17.3289C29.8076 16.863 29.8796 16.3938 29.9277 15.9211C29.9758 15.4487 30 14.9749 30 14.5C29.9995 14.0251 29.9749 13.5518 29.9263 13.0793C29.8777 12.6067 29.8054 12.1377 29.7092 11.6724C29.613 11.2068 29.4934 10.7468 29.3506 10.2925C29.2078 9.83838 29.0422 9.39209 28.854 8.95337C28.6658 8.51489 28.4558 8.08643 28.2241 7.66772C27.9924 7.24927 27.7402 6.84253 27.4673 6.44775C27.1943 6.05322 26.9019 5.67236 26.5903 5.30542C26.2788 4.93848 25.9492 4.58716 25.6021 4.25146C25.2546 3.91577 24.8914 3.59717 24.5117 3.29614C24.1321 2.99487 23.738 2.71216 23.3298 2.44849C22.9216 2.18457 22.501 1.94067 22.0679 1.71655C21.6348 1.49268 21.1914 1.28979 20.7378 1.10791C20.2842 0.926025 19.8223 0.765869 19.3525 0.627686C18.8826 0.489746 18.407 0.374023 17.9253 0.28125C17.4436 0.188232 16.9585 0.118164 16.4697 0.0712891C15.981 0.0241699 15.4912 0.000488281 15 0ZM7.22314 24.1899C7.43091 23.8757 7.6582 23.5752 7.90503 23.2886C8.15186 23.0017 8.41626 22.7312 8.69824 22.4766C8.98022 22.2219 9.27759 21.9854 9.59009 21.7666C9.90283 21.5481 10.2283 21.3491 10.5669 21.1702C10.9053 20.991 11.2539 20.833 11.6128 20.696C11.9719 20.5593 12.3381 20.4446 12.7119 20.3521C13.0859 20.2598 13.4641 20.1902 13.8469 20.1436C14.2297 20.0969 14.6143 20.0737 15 20.0737C15.3857 20.0737 15.7703 20.0969 16.1531 20.1436C16.5359 20.1902 16.9141 20.2598 17.2881 20.3521C17.6619 20.4446 18.0281 20.5593 18.3872 20.696C18.7461 20.833 19.0947 20.991 19.4331 21.1702C19.7717 21.3491 20.0972 21.5481 20.4099 21.7666C20.7224 21.9854 21.0198 22.2219 21.3018 22.4766C21.5837 22.7312 21.8481 23.0017 22.095 23.2886C22.3418 23.5752 22.5691 23.8757 22.7769 24.1899C22.2249 24.605 21.6411 24.9734 21.0261 25.2949C20.4109 25.6165 19.7725 25.887 19.1108 26.1064C18.4495 26.3257 17.7737 26.4912 17.084 26.6023C16.394 26.7136 15.6995 26.769 15 26.769C14.3005 26.769 13.606 26.7136 12.916 26.6023C12.2263 26.4912 11.5505 26.3257 10.8892 26.1064C10.2275 25.887 9.58911 25.6165 8.97388 25.2949C8.35889 24.9734 7.77515 24.605 7.22314 24.1899ZM10.3845 13.3845C10.3845 13.0916 10.4141 12.8015 10.4734 12.5142C10.5325 12.2268 10.6199 11.948 10.7358 11.6772C10.8518 11.4065 10.9941 11.1494 11.1624 10.906C11.3308 10.6624 11.5222 10.437 11.7363 10.2297C11.9507 10.0227 12.1838 9.83765 12.4358 9.67505C12.6877 9.51221 12.9539 9.37476 13.2339 9.2627C13.5137 9.15063 13.8022 9.06592 14.0996 9.00879C14.3967 8.95166 14.697 8.9231 15 8.9231C15.303 8.9231 15.6033 8.95166 15.9004 9.00879C16.1978 9.06592 16.4863 9.15063 16.7661 9.2627C17.0461 9.37476 17.3123 9.51221 17.5642 9.67505C17.8162 9.83765 18.0493 10.0227 18.2637 10.2297C18.4778 10.437 18.6692 10.6624 18.8376 10.906C19.0059 11.1494 19.1482 11.4065 19.2642 11.6772C19.3801 11.948 19.4675 12.2268 19.5266 12.5142C19.5859 12.8015 19.6155 13.0916 19.6155 13.3845C19.6155 13.6775 19.5859 13.9678 19.5266 14.2551C19.4675 14.5422 19.3801 14.8213 19.2642 15.092C19.1482 15.3625 19.0059 15.6196 18.8376 15.8633C18.6692 16.1069 18.4778 16.3323 18.2637 16.5393C18.0493 16.7466 17.8162 16.9314 17.5642 17.0942C17.3123 17.2571 17.0461 17.3945 16.7661 17.5066C16.4863 17.6187 16.1978 17.7034 15.9004 17.7605C15.6033 17.8176 15.303 17.8462 15 17.8462C14.697 17.8462 14.3967 17.8176 14.0996 17.7605C13.8022 17.7034 13.5137 17.6187 13.2339 17.5066C12.9539 17.3945 12.6877 17.2571 12.4358 17.0942C12.1838 16.9314 11.9507 16.7466 11.7363 16.5393C11.5222 16.3323 11.3308 16.1069 11.1624 15.8633C10.9941 15.6196 10.8518 15.3625 10.7358 15.092C10.6199 14.8213 10.5325 14.5422 10.4734 14.2551C10.4141 13.9678 10.3845 13.6775 10.3845 13.3845ZM24.4846 22.6438C23.8411 21.7424 23.0767 20.9504 22.1907 20.2678C21.3049 19.585 20.3359 19.0408 19.2837 18.6353C19.6587 18.3496 19.9998 18.03 20.3064 17.676C20.6133 17.3223 20.8792 16.9419 21.1045 16.5347C21.3296 16.1277 21.5095 15.7026 21.6438 15.2598C21.7781 14.8167 21.864 14.365 21.9016 13.905C21.9392 13.4448 21.9277 12.9856 21.8669 12.5278C21.8064 12.0698 21.6978 11.6228 21.5415 11.1868C21.385 10.7505 21.1841 10.3345 20.9387 9.93848C20.6934 9.54248 20.4084 9.1748 20.0845 8.83594C19.7603 8.49683 19.4038 8.19336 19.0146 7.92578C18.6257 7.65796 18.2124 7.43164 17.7749 7.24658C17.3374 7.06177 16.885 6.92188 16.4175 6.82739C15.95 6.73291 15.4775 6.68555 15 6.68555C14.5225 6.68555 14.05 6.73291 13.5825 6.82739C13.115 6.92188 12.6626 7.06177 12.2251 7.24658C11.7876 7.43164 11.3743 7.65796 10.9854 7.92578C10.5962 8.19336 10.2397 8.49683 9.91553 8.83594C9.59155 9.1748 9.30664 9.54248 9.06128 9.93848C8.81592 10.3345 8.61499 10.7505 8.4585 11.1868C8.30225 11.6228 8.1936 12.0698 8.13306 12.5278C8.07227 12.9856 8.06079 13.4448 8.09839 13.905C8.13599 14.365 8.22192 14.8167 8.3562 15.2598C8.49048 15.7026 8.67041 16.1277 8.89551 16.5347C9.12085 16.9419 9.38672 17.3223 9.6936 17.676C10.0002 18.03 10.3413 18.3496 10.7163 18.6353C9.66406 19.0408 8.69507 19.585 7.80933 20.2678C6.92334 20.9504 6.15894 21.7424 5.51538 22.6438C5.24609 22.3508 4.9917 22.0464 4.75269 21.73C4.51343 21.4136 4.29053 21.0869 4.08374 20.75C3.87695 20.4128 3.68726 20.0671 3.51465 19.7126C3.34204 19.3579 3.1875 18.9963 3.05078 18.6274C2.91431 18.2585 2.79614 17.884 2.69653 17.5044C2.59692 17.1245 2.51636 16.741 2.45483 16.3535C2.39331 15.9663 2.35107 15.5771 2.32812 15.1858C2.30518 14.7947 2.30151 14.4033 2.31738 14.0117C2.33325 13.6204 2.36841 13.2305 2.42285 12.842C2.47729 12.4539 2.55078 12.0688 2.64331 11.6875C2.73608 11.3059 2.84717 10.9297 2.97705 10.5586C3.10718 10.1873 3.25513 9.823 3.42114 9.46558C3.58716 9.10815 3.77026 8.75903 3.97095 8.4187C4.17163 8.07812 4.38843 7.7478 4.62183 7.42725C4.85522 7.10693 5.104 6.7981 5.36792 6.50073C5.63184 6.20337 5.90991 5.91895 6.20215 5.64722C6.49414 5.37573 6.79907 5.11816 7.1167 4.87476C7.43457 4.63135 7.76343 4.40332 8.10376 4.19043C8.44409 3.97754 8.79419 3.78076 9.15381 3.60034C9.51367 3.41992 9.88159 3.25635 10.2576 3.11011C10.6335 2.96362 11.0159 2.83496 11.4045 2.72388C11.7935 2.61304 12.1868 2.52002 12.5847 2.44556C12.9827 2.37109 13.3833 2.31494 13.7869 2.27759C14.1902 2.23999 14.5947 2.22144 15 2.22144C15.4053 2.22144 15.8098 2.23999 16.2131 2.27759C16.6167 2.31494 17.0173 2.37109 17.4153 2.44556C17.8132 2.52002 18.2065 2.61304 18.5955 2.72388C18.9841 2.83496 19.3665 2.96362 19.7424 3.11011C20.1184 3.25635 20.4863 3.41992 20.8462 3.60034C21.2058 3.78076 21.5559 3.97754 21.8962 4.19043C22.2366 4.40332 22.5654 4.63135 22.8833 4.87476C23.2009 5.11816 23.5059 5.37573 23.7979 5.64722C24.0901 5.91895 24.3682 6.20337 24.6321 6.50073C24.896 6.7981 25.1448 7.10693 25.3782 7.42725C25.6116 7.7478 25.8284 8.07812 26.0291 8.4187C26.2297 8.75903 26.4128 9.10815 26.5789 9.46558C26.7449 9.823 26.8928 10.1873 27.0229 10.5586C27.1528 10.9297 27.2639 11.3059 27.3567 11.6875C27.4492 12.0688 27.5227 12.4539 27.5771 12.842C27.6316 13.2305 27.6667 13.6204 27.6826 14.0117C27.6985 14.4033 27.6948 14.7947 27.6719 15.1858C27.6489 15.5771 27.6067 15.9663 27.5452 16.3535C27.4836 16.741 27.4031 17.1245 27.3035 17.5044C27.2039 17.884 27.0857 18.2585 26.9492 18.6274C26.8125 18.9963 26.658 19.3579 26.4854 19.7126C26.3127 20.0671 26.123 20.4128 25.9163 20.75C25.7095 21.0869 25.4866 21.4136 25.2473 21.73C25.0083 22.0464 24.7539 22.3508 24.4846 22.6438Z" fill="#FFFFFF" fill-opacity="1.000000" fill-rule="nonzero"/>
</svg>
