<svg width="52" height="58" viewBox="0 0 52 58" fill="none" xmlns="http://www.w3.org/2000/svg">
<path d="M45.2338 31.1226L23.1011 53.215C20.6732 55.6385 17.3802 57 13.9465 57C10.5129 57 7.2199 55.6385 4.79195 53.215C2.36401 50.7914 1 47.5044 1 44.077C1 40.6497 2.36401 37.3626 4.79195 34.9391L36.2662 3.52213C37.0679 2.72225 38.0196 2.08782 39.067 1.65508C40.1143 1.22233 41.2368 0.999734 42.3703 1C43.5039 1.00027 44.6262 1.22339 45.6734 1.65663C46.7205 2.08987 47.6719 2.72474 48.4733 3.525C49.2746 4.32526 49.9102 5.27523 50.3437 6.32067C50.7773 7.36611 51.0003 8.48655 51 9.61802C50.9997 10.7495 50.7762 11.8698 50.3422 12.9151C49.9081 13.9603 49.2721 14.91 48.4704 15.7099L16.9731 47.1498C16.156 47.9317 15.0638 48.359 13.932 48.3447C12.8001 48.3304 11.7192 47.8727 10.9222 47.0704C10.1252 46.2681 9.67595 45.1853 9.67122 44.0554C9.66648 42.9256 10.1067 41.8391 10.8969 41.0301L33.3662 18.6017M16.999 47.1211L16.9702 47.1498" stroke="#080707" stroke-width="1.5" stroke-linecap="round" stroke-linejoin="round"/>
</svg>
