<svg width="46" height="46" viewBox="0 0 46 46" fill="none" xmlns="http://www.w3.org/2000/svg">
<path fill-rule="evenodd" clip-rule="evenodd" d="M26.7758 12.4009C27.0454 12.1317 27.4107 11.9805 27.7917 11.9805C28.1726 11.9805 28.538 12.1317 28.8075 12.4009L38.3908 21.9842C38.66 22.2537 38.8112 22.6191 38.8112 23C38.8112 23.381 38.66 23.7463 38.3908 24.0159L28.8075 33.5992C28.6759 33.7404 28.5172 33.8537 28.3409 33.9323C28.1645 34.0109 27.9742 34.0531 27.7812 34.0565C27.5882 34.0599 27.3964 34.0244 27.2174 33.9521C27.0384 33.8798 26.8758 33.7722 26.7393 33.6357C26.6028 33.4992 26.4952 33.3366 26.4229 33.1576C26.3506 32.9786 26.3151 32.7869 26.3185 32.5939C26.3219 32.4009 26.3642 32.2105 26.4428 32.0342C26.5213 31.8578 26.6346 31.6991 26.7758 31.5675L33.9058 24.4375H18.2083C16.8417 24.4375 14.7583 24.8592 13.0583 26.084C11.4329 27.2531 10.0625 29.2177 10.0625 32.5834C10.0625 32.9646 9.91105 33.3303 9.64147 33.5998C9.37188 33.8694 9.00625 34.0209 8.625 34.0209C8.24375 34.0209 7.87812 33.8694 7.60853 33.5998C7.33895 33.3303 7.1875 32.9646 7.1875 32.5834C7.1875 28.2824 9.01217 25.4534 11.3792 23.7495C13.6716 22.0992 16.3817 21.5625 18.2083 21.5625H33.9058L26.7758 14.4325C26.5066 14.163 26.3554 13.7976 26.3554 13.4167C26.3554 13.0358 26.5066 12.6704 26.7758 12.4009Z" fill="black"/>
</svg>
