<svg width="30.000000" height="29.000000" viewBox="0 0 30 29" fill="none" xmlns="http://www.w3.org/2000/svg" xmlns:xlink="http://www.w3.org/1999/xlink">
	<desc>
			Created with Pixso.
	</desc>
	<defs/>
	<path id="path" d="M28.63 0L5.45 0C5.09 0 4.74 0.02 4.39 0.08C4.03 0.14 3.69 0.22 3.36 0.33C3.03 0.45 2.72 0.58 2.42 0.75C2.12 0.91 1.85 1.09 1.59 1.3C1.34 1.51 1.11 1.73 0.91 1.98C0.72 2.22 0.55 2.48 0.41 2.75C0.27 3.02 0.17 3.3 0.1 3.59C0.03 3.87 0 4.16 0 4.46L0 27.88C0 28.03 0.03 28.17 0.1 28.31C0.17 28.44 0.27 28.56 0.39 28.67C0.52 28.77 0.67 28.85 0.84 28.91C1 28.97 1.18 29 1.36 29L25.9 29C26.08 29 26.26 28.97 26.43 28.91C26.59 28.85 26.74 28.77 26.87 28.67C27 28.56 27.09 28.44 27.16 28.31C27.23 28.17 27.27 28.03 27.27 27.88C27.27 27.73 27.23 27.59 27.16 27.45C27.09 27.32 27 27.2 26.87 27.09C26.74 26.99 26.59 26.91 26.43 26.85C26.26 26.79 26.08 26.76 25.9 26.76L2.72 26.76C2.72 26.47 2.79 26.18 2.93 25.91C3.07 25.64 3.27 25.4 3.52 25.19C3.78 24.98 4.07 24.82 4.41 24.7C4.74 24.59 5.09 24.53 5.45 24.53L28.63 24.53C28.81 24.53 28.99 24.51 29.15 24.45C29.32 24.39 29.47 24.31 29.6 24.21C29.72 24.1 29.82 23.98 29.89 23.84C29.96 23.71 30 23.57 30 23.42L30 1.11C30 0.96 29.96 0.82 29.89 0.68C29.82 0.55 29.72 0.43 29.6 0.32C29.47 0.22 29.32 0.14 29.15 0.08C28.99 0.02 28.81 0 28.63 0ZM27.27 22.3L5.45 22.3C4.47 22.3 3.57 22.5 2.72 22.9L2.72 4.46C2.72 4.16 2.79 3.88 2.93 3.6C3.07 3.33 3.27 3.09 3.52 2.88C3.78 2.67 4.07 2.51 4.41 2.4C4.74 2.28 5.09 2.23 5.45 2.23L27.27 2.23L27.27 22.3Z" fill="#FFFFFF" fill-opacity="1.000000" fill-rule="nonzero"/>
</svg>
