<svg width="21.000000" height="21.000000" viewBox="0 0 21 21" fill="none" xmlns="http://www.w3.org/2000/svg" xmlns:xlink="http://www.w3.org/1999/xlink">
	<desc>
			Created with Pixso.
	</desc>
	<defs/>
	<path id="path" d="M8.74973 20.125C8.74973 20.2411 8.72751 20.3527 8.68311 20.4598C8.6387 20.567 8.57547 20.6616 8.49344 20.7438C8.41141 20.8258 8.31677 20.889 8.20956 20.9333C8.10239 20.9778 7.99078 21 7.87476 21L1.74994 21C1.51788 21 1.29465 20.9556 1.08026 20.8668C0.865875 20.778 0.676636 20.6515 0.512543 20.4874C0.34845 20.3234 0.222015 20.134 0.133209 19.9197C0.0444031 19.7053 0 19.4821 0 19.25L0 1.75C0 1.51794 0.0444031 1.29468 0.133209 1.08032C0.222015 0.865845 0.34845 0.676636 0.512543 0.512573C0.676636 0.348511 0.865875 0.222046 1.08026 0.133179C1.29465 0.0444336 1.51788 0 1.74994 0L7.87476 0C7.99078 0 8.10239 0.0222168 8.20956 0.0666504C8.31677 0.110962 8.41141 0.174194 8.49344 0.256226C8.57547 0.338379 8.6387 0.432983 8.68311 0.540161C8.72751 0.647339 8.74973 0.758911 8.74973 0.875C8.74973 0.991089 8.72751 1.10266 8.68311 1.20984C8.6387 1.31702 8.57547 1.41162 8.49344 1.49377C8.41141 1.57581 8.31677 1.63904 8.20956 1.68335C8.10239 1.72778 7.99078 1.75 7.87476 1.75L1.74994 1.75L1.74994 19.25L7.87476 19.25C7.99078 19.25 8.10239 19.2722 8.20956 19.3167C8.31677 19.361 8.41141 19.4242 8.49344 19.5062C8.57547 19.5884 8.6387 19.683 8.68311 19.7902C8.72751 19.8973 8.74973 20.0089 8.74973 20.125ZM20.7434 9.88098L16.3685 5.50598C16.2864 5.42383 16.1918 5.3606 16.0845 5.31616C15.9773 5.27173 15.8656 5.24951 15.7495 5.24951C15.6334 5.24951 15.5217 5.27173 15.4145 5.31616C15.3072 5.3606 15.2125 5.42383 15.1304 5.50598C15.0483 5.58801 14.9851 5.68274 14.9407 5.78992C14.8962 5.89722 14.874 6.00891 14.874 6.125C14.874 6.24109 14.8962 6.35278 14.9407 6.46008C14.9851 6.56726 15.0483 6.66199 15.1304 6.74402L18.0124 9.625L7.87476 9.625C7.7587 9.625 7.64709 9.64722 7.53992 9.69165C7.43271 9.73596 7.33807 9.79919 7.25604 9.88123C7.17401 9.96338 7.11078 10.058 7.06638 10.1652C7.02197 10.2723 6.99976 10.3839 6.99976 10.5C6.99976 10.6161 7.02197 10.7277 7.06638 10.8348C7.11078 10.942 7.17401 11.0366 7.25604 11.1188C7.33807 11.2008 7.43271 11.264 7.53992 11.3083C7.64709 11.3528 7.7587 11.375 7.87476 11.375L18.0124 11.375L15.1304 14.256C15.0483 14.338 14.9851 14.4327 14.9407 14.5399C14.8962 14.6472 14.874 14.7589 14.874 14.875C14.874 14.9911 14.8962 15.1028 14.9407 15.2101C14.9851 15.3173 15.0483 15.412 15.1304 15.494C15.2125 15.5762 15.3072 15.6394 15.4145 15.6838C15.5217 15.7283 15.6334 15.7505 15.7495 15.7505C15.8656 15.7505 15.9772 15.7283 16.0845 15.6838C16.1918 15.6394 16.2864 15.5762 16.3685 15.494L20.7434 11.119C20.8255 11.037 20.8889 10.9424 20.9333 10.8351C20.9778 10.7278 21 10.6161 21 10.5C21 10.3839 20.9778 10.2722 20.9333 10.1649C20.8889 10.0576 20.8255 9.96301 20.7434 9.88098Z" fill="#F2F2F2" fill-opacity="1.000000" fill-rule="nonzero"/>
</svg>
