<svg width="21" height="21" viewBox="0 0 21 21" fill="none" xmlns="http://www.w3.org/2000/svg">
<path d="M11.2591 0.205454C11.0294 0.0709173 10.7681 0 10.5019 0C10.2357 0 9.97439 0.0709173 9.74473 0.205454L0.742499 5.47759C0.517137 5.61003 0.330361 5.79914 0.200735 6.02613C0.0711094 6.25311 0.00314611 6.51006 0.00360047 6.77145C0.00405482 7.03283 0.0729109 7.28955 0.203325 7.51608C0.33374 7.74261 0.521171 7.93107 0.746993 8.06273L9.74773 13.3079C9.97668 13.4413 10.2369 13.5116 10.5019 13.5116C10.7669 13.5116 11.0271 13.4413 11.2561 13.3079L20.2568 8.06273C20.4828 7.93091 20.6704 7.74218 20.8008 7.51534C20.9312 7.28851 20.9998 7.03148 21 6.76984C21.0002 6.5082 20.9318 6.25109 20.8016 6.02411C20.6715 5.79712 20.4842 5.60818 20.2583 5.47609L11.2591 0.205454ZM9.74473 1.94136C9.97421 1.80711 10.2353 1.73635 10.5012 1.73635C10.767 1.73635 11.0281 1.80711 11.2576 1.94136L19.5019 6.76866L11.2561 11.575C11.0271 11.7084 10.7669 11.7787 10.5019 11.7787C10.2369 11.7787 9.97668 11.7084 9.74773 11.575L1.50042 6.76866L9.74473 1.94136ZM0.122378 9.99035L9.7657 15.4168C9.98981 15.5427 10.2426 15.6089 10.4997 15.6089C10.7568 15.6089 11.0095 15.5427 11.2336 15.4168L20.8769 9.99035C21.0219 10.3265 21.0387 10.7041 20.9241 11.0519C20.8096 11.3996 20.5717 11.6933 20.2553 11.8775L11.2531 17.1227C11.0243 17.2558 10.7644 17.326 10.4997 17.326C10.235 17.326 9.975 17.2558 9.74623 17.1227L0.743997 11.8775C0.427635 11.6933 0.189714 11.3996 0.0751819 11.0519C-0.03935 10.7041 -0.0225606 10.3265 0.122378 9.99035ZM0.122378 13.6644L9.7657 19.0893C9.98981 19.2152 10.2426 19.2814 10.4997 19.2814C10.7568 19.2814 11.0095 19.2152 11.2336 19.0893L20.8769 13.6644C21.0219 14.0005 21.0387 14.3782 20.9241 14.7259C20.8096 15.0736 20.5717 15.3673 20.2553 15.5516L11.2531 20.7967C11.0243 20.9299 10.7644 21 10.4997 21C10.235 21 9.975 20.9299 9.74623 20.7967L0.743997 15.5516C0.427635 15.3673 0.189714 15.0736 0.0751819 14.7259C-0.03935 14.3782 -0.0225606 14.0005 0.122378 13.6644Z" fill="#014034"/>
</svg>
