<svg width="30.000000" height="29.000000" viewBox="0 0 30 29" fill="none" xmlns="http://www.w3.org/2000/svg" xmlns:xlink="http://www.w3.org/1999/xlink">
	<desc>
			Created with Pixso.
	</desc>
	<defs/>
	<path id="path" d="M15 0C14.5088 0.000488281 14.019 0.0241699 13.5303 0.0712891C13.0415 0.118164 12.5564 0.188232 12.0747 0.28125C11.5933 0.374268 11.1174 0.489746 10.6475 0.62793C10.1777 0.766113 9.71582 0.926025 9.26221 1.10791C8.80859 1.29004 8.36523 1.49292 7.93237 1.7168C7.49927 1.94092 7.07861 2.18481 6.67041 2.44849C6.26196 2.7124 5.86816 2.99512 5.48853 3.29614C5.10889 3.59741 4.74561 3.91602 4.39819 4.25171C4.05103 4.5874 3.72144 4.93872 3.40991 5.30566C3.09839 5.67261 2.80591 6.05322 2.53296 6.448C2.26001 6.84277 2.00781 7.24927 1.77612 7.66797C1.54443 8.08643 1.33447 8.51514 1.14624 8.95361C0.958008 9.39209 0.79248 9.83838 0.649658 10.2927C0.506592 10.7468 0.387207 11.2068 0.291016 11.6724C0.194824 12.1379 0.122314 12.6069 0.0737305 13.0793C0.0251465 13.5518 0.000488281 14.0251 0 14.5L0 26.7278C0.000488281 27.0291 0.0603027 27.3188 0.179688 27.5969C0.299072 27.875 0.468994 28.1206 0.689209 28.3337C0.909668 28.5466 1.16357 28.7109 1.45142 28.8262C1.73926 28.9417 2.03882 28.9995 2.35059 29L15 29C15.4912 29 15.9814 28.9768 16.4702 28.9302C16.9592 28.8835 17.4446 28.814 17.9263 28.7214C18.4082 28.6287 18.884 28.5134 19.3542 28.3757C19.8245 28.2378 20.2864 28.0779 20.7402 27.8962C21.1941 27.7146 21.6377 27.5117 22.071 27.2878C22.5042 27.064 22.925 26.8201 23.3335 26.5564C23.7419 26.2925 24.1362 26.01 24.5159 25.7087C24.8958 25.4075 25.2593 25.0889 25.6067 24.7529C25.9541 24.4172 26.2834 24.0659 26.5952 23.6987C26.9067 23.3315 27.1992 22.9507 27.4719 22.5557C27.7449 22.1609 27.9973 21.7542 28.2288 21.3352C28.4604 20.9165 28.6702 20.4875 28.8582 20.0488C29.0461 19.6101 29.2114 19.1636 29.354 18.7092C29.4968 18.2546 29.616 17.7947 29.7117 17.3289C29.8076 16.863 29.8796 16.3938 29.9277 15.9211C29.9758 15.4487 30 14.9749 30 14.5C30 14.0251 29.9758 13.5513 29.9277 13.0789C29.8796 12.6062 29.8076 12.137 29.7117 11.6711C29.616 11.2053 29.4968 10.7454 29.354 10.2908C29.2114 9.83643 29.0461 9.38989 28.8582 8.95117C28.6702 8.51245 28.4604 8.0835 28.2288 7.66479C27.9973 7.24585 27.7449 6.83911 27.4719 6.44434C27.1992 6.04932 26.9067 5.66846 26.5952 5.30127C26.2834 4.93408 25.9541 4.58276 25.6067 4.24707C25.2593 3.91113 24.8958 3.59253 24.5159 3.29126C24.1362 2.98999 23.7419 2.70752 23.3335 2.4436C22.925 2.17993 22.5042 1.93604 22.071 1.71216C21.6377 1.48828 21.1941 1.2854 20.7402 1.10376C20.2864 0.922119 19.8245 0.762207 19.3542 0.624268C18.884 0.486572 18.4082 0.371338 17.9263 0.278564C17.4446 0.186035 16.9592 0.116455 16.4702 0.0698242C15.9814 0.0231934 15.4912 0 15 0ZM15 26.6799L2.3999 26.6799L2.3999 14.5C2.3999 14.1011 2.42017 13.7031 2.46069 13.3062C2.50122 12.9092 2.56152 12.5151 2.64209 12.1238C2.72266 11.7327 2.82275 11.3459 2.94263 10.9644C3.06226 10.5825 3.20117 10.2075 3.35913 9.83887C3.51709 9.47046 3.69336 9.11011 3.8877 8.7583C4.08228 8.40649 4.29419 8.06494 4.52344 7.73315C4.75269 7.40137 4.99829 7.08154 5.26001 6.77319C5.52197 6.46484 5.79858 6.16943 6.09033 5.88745C6.38232 5.60547 6.68774 5.33789 7.00659 5.08472C7.32568 4.83179 7.65674 4.59424 7.99976 4.3728C8.34302 4.15112 8.69653 3.94629 9.0603 3.7583C9.42432 3.57007 9.79688 3.3999 10.1782 3.24707C10.5593 3.09448 10.9475 2.96021 11.3425 2.84448C11.7373 2.72876 12.1372 2.63184 12.5417 2.55396C12.9465 2.47632 13.3542 2.41772 13.7649 2.37866C14.1758 2.3396 14.5874 2.32007 15 2.32007C15.4126 2.32007 15.8242 2.3396 16.2351 2.37866C16.6458 2.41772 17.0535 2.47632 17.4583 2.55396C17.8628 2.63184 18.2627 2.72876 18.6575 2.84448C19.0525 2.96021 19.4407 3.09448 19.8218 3.24707C20.2031 3.3999 20.5757 3.57007 20.9397 3.7583C21.3035 3.94629 21.657 4.15112 22.0002 4.3728C22.3433 4.59424 22.6743 4.83179 22.9934 5.08472C23.3123 5.33789 23.6177 5.60547 23.9097 5.88745C24.2014 6.16943 24.478 6.46484 24.74 6.77319C25.0017 7.08154 25.2473 7.40137 25.4766 7.73315C25.7058 8.06494 25.9177 8.40649 26.1123 8.7583C26.3066 9.11011 26.4829 9.47046 26.6409 9.83887C26.7988 10.2075 26.9377 10.5825 27.0574 10.9644C27.1772 11.3459 27.2773 11.7327 27.3579 12.1238C27.4385 12.5151 27.4988 12.9092 27.5393 13.3062C27.5798 13.7031 27.6001 14.1011 27.6001 14.5C27.6001 14.8989 27.5798 15.2969 27.5393 15.6938C27.4988 16.0908 27.4385 16.4849 27.3579 16.8762C27.2773 17.2673 27.1772 17.6541 27.0574 18.0356C26.9377 18.4175 26.7988 18.7925 26.6409 19.1611C26.4829 19.5295 26.3066 19.8899 26.1123 20.2417C25.9177 20.5935 25.7058 20.9351 25.4766 21.2668C25.2473 21.5986 25.0017 21.9185 24.74 22.2268C24.478 22.5352 24.2014 22.8306 23.9097 23.1125C23.6177 23.3945 23.3123 23.6621 22.9934 23.9153C22.6743 24.1685 22.3433 24.4058 22.0002 24.6272C21.657 24.8489 21.3035 25.0537 20.9397 25.2417C20.5757 25.4299 20.2031 25.6001 19.8218 25.7529C19.4407 25.9055 19.0525 26.0398 18.6575 26.1555C18.2627 26.2712 17.8628 26.3682 17.4583 26.446C17.0535 26.5237 16.6458 26.5823 16.2351 26.6213C15.8242 26.6604 15.4126 26.6799 15 26.6799ZM16.8 15.0801C16.8 15.3108 16.7544 15.5327 16.6631 15.7458C16.5715 15.959 16.4417 16.1472 16.2727 16.3103C16.104 16.4736 15.9094 16.5994 15.6887 16.6875C15.4683 16.7759 15.2388 16.8201 15 16.8201C14.7612 16.8201 14.5317 16.7759 14.3113 16.6875C14.0906 16.5994 13.896 16.4736 13.7273 16.3103C13.5583 16.1472 13.4285 15.959 13.3369 15.7458C13.2456 15.5327 13.2 15.3108 13.2 15.0801C13.2 14.8494 13.2456 14.6272 13.3369 14.4141C13.4285 14.2009 13.5583 14.0127 13.7273 13.8496C13.896 13.6865 14.0906 13.5608 14.3113 13.4724C14.5317 13.384 14.7612 13.3401 15 13.3401C15.2388 13.3401 15.4683 13.384 15.6887 13.4724C15.9094 13.5608 16.104 13.6865 16.2727 13.8496C16.4417 14.0127 16.5715 14.2009 16.6631 14.4141C16.7544 14.6272 16.8 14.8494 16.8 15.0801ZM10.2 15.0801C10.2 15.3108 10.1543 15.5327 10.063 15.7458C9.97168 15.959 9.84155 16.1472 9.67285 16.3103C9.50391 16.4736 9.30933 16.5994 9.08887 16.6875C8.86841 16.7759 8.63867 16.8201 8.3999 16.8201C8.16138 16.8201 7.93164 16.7759 7.71118 16.6875C7.49072 16.5994 7.2959 16.4736 7.1272 16.3103C6.9585 16.1472 6.82837 15.959 6.73706 15.7458C6.64575 15.5327 6.6001 15.3108 6.6001 15.0801C6.6001 14.8494 6.64575 14.6272 6.73706 14.4141C6.82837 14.2009 6.9585 14.0127 7.1272 13.8496C7.2959 13.6865 7.49072 13.5608 7.71118 13.4724C7.93164 13.384 8.16138 13.3401 8.3999 13.3401C8.63867 13.3401 8.86841 13.384 9.08887 13.4724C9.30933 13.5608 9.50391 13.6865 9.67285 13.8496C9.84155 14.0127 9.97168 14.2009 10.063 14.4141C10.1543 14.6272 10.2 14.8494 10.2 15.0801ZM23.3999 15.0801C23.3999 15.3108 23.3542 15.5327 23.2629 15.7458C23.1716 15.959 23.0415 16.1472 22.8728 16.3103C22.7041 16.4736 22.5093 16.5994 22.2888 16.6875C22.0684 16.7759 21.8386 16.8201 21.6001 16.8201C21.3613 16.8201 21.1316 16.7759 20.9111 16.6875C20.6907 16.5994 20.4961 16.4736 20.3271 16.3103C20.1584 16.1472 20.0283 15.959 19.937 15.7458C19.8457 15.5327 19.8 15.3108 19.8 15.0801C19.8 14.8494 19.8457 14.6272 19.937 14.4141C20.0283 14.2009 20.1584 14.0127 20.3271 13.8496C20.4961 13.6865 20.6907 13.5608 20.9111 13.4724C21.1316 13.384 21.3613 13.3401 21.6001 13.3401C21.8386 13.3401 22.0684 13.384 22.2888 13.4724C22.5093 13.5608 22.7041 13.6865 22.8728 13.8496C23.0415 14.0127 23.1716 14.2009 23.2629 14.4141C23.3542 14.6272 23.3999 14.8494 23.3999 15.0801Z" fill="#FFFFFF" fill-opacity="1.000000" fill-rule="nonzero"/>
</svg>
